<svg width="52" height="52" viewBox="0 0 52 52" fill="none" xmlns="http://www.w3.org/2000/svg">
<path d="M26 0C11.648 0 0 11.648 0 26C0 40.352 11.648 52 26 52C40.352 52 52 40.352 52 26C52 11.648 40.352 0 26 0ZM18.954 37.154L9.62 27.82C9.37929 27.5793 9.18834 27.2935 9.05807 26.979C8.9278 26.6645 8.86075 26.3274 8.86075 25.987C8.86075 25.6466 8.9278 25.3095 9.05807 24.995C9.18834 24.6805 9.37929 24.3947 9.62 24.154C9.86071 23.9133 10.1465 23.7223 10.461 23.5921C10.7755 23.4618 11.1126 23.3947 11.453 23.3947C11.7934 23.3947 12.1305 23.4618 12.445 23.5921C12.7595 23.7223 13.0453 23.9133 13.286 24.154L20.8 31.642L38.688 13.754C39.1741 13.2679 39.8335 12.9947 40.521 12.9947C41.2085 12.9947 41.8679 13.2679 42.354 13.754C42.8401 14.2401 43.1133 14.8995 43.1133 15.587C43.1133 16.2745 42.8401 16.9339 42.354 17.42L22.62 37.154C22.3795 37.395 22.0938 37.5863 21.7792 37.7167C21.4647 37.8472 21.1275 37.9144 20.787 37.9144C20.4465 37.9144 20.1093 37.8472 19.7948 37.7167C19.4802 37.5863 19.1945 37.395 18.954 37.154Z" fill="#74D964"/>
</svg>
