<svg width="32" height="32" viewBox="0 0 32 32" fill="none" xmlns="http://www.w3.org/2000/svg">
<rect x="23.3672" y="8.60547" width="4.64621" height="15.4555" rx="2.3231" transform="rotate(90 23.3672 8.60547)" fill="white"/>
<rect x="23.3672" y="8.60547" width="4.64621" height="15.4555" rx="2.3231" transform="rotate(90 23.3672 8.60547)" fill="url(#paint0_linear_452_91337)"/>
<rect x="21.0713" y="7.63672" width="4.64621" height="19.7839" rx="2.3231" transform="rotate(45 21.0713 7.63672)" fill="white"/>
<rect x="21.0713" y="7.63672" width="4.64621" height="19.7839" rx="2.3231" transform="rotate(45 21.0713 7.63672)" fill="url(#paint1_linear_452_91337)"/>
<path d="M21.2111 19.3008C22.4941 19.3008 23.5342 20.3409 23.5342 21.6239C23.5342 22.9069 22.4941 23.947 21.2111 23.947H20.6956C19.4126 23.947 18.3725 22.9069 18.3725 21.6239C18.3725 20.3409 19.4126 19.3008 20.6956 19.3008H21.2111Z" fill="white"/>
<defs>
<linearGradient id="paint0_linear_452_91337" x1="25.7605" y1="10.9548" x2="28.0655" y2="25.315" gradientUnits="userSpaceOnUse">
<stop stop-color="#EBBCB3"/>
<stop offset="1" stop-color="white" stop-opacity="0"/>
</linearGradient>
<linearGradient id="paint1_linear_452_91337" x1="23.4646" y1="10.6439" x2="27.1819" y2="28.7356" gradientUnits="userSpaceOnUse">
<stop stop-color="white" stop-opacity="0"/>
<stop offset="0.919417" stop-color="#EBBCB3"/>
</linearGradient>
</defs>
</svg>
