<svg width="20" height="20" viewBox="0 0 20 20" fill="none" xmlns="http://www.w3.org/2000/svg">
<path d="M16.194 10.818C16.2273 10.5513 16.2523 10.2846 16.2523 10.0013C16.2523 9.71797 16.2273 9.4513 16.194 9.18464L17.9523 7.80964C18.1106 7.68464 18.1523 7.45964 18.0523 7.2763L16.3856 4.39297C16.3106 4.25964 16.169 4.18464 16.019 4.18464C15.969 4.18464 15.919 4.19297 15.8773 4.20964L13.8023 5.04297C13.369 4.70964 12.9023 4.43464 12.394 4.2263L12.0773 2.01797C12.0523 1.81797 11.8773 1.66797 11.669 1.66797H8.33564C8.12731 1.66797 7.95231 1.81797 7.92731 2.01797L7.61064 4.2263C7.10231 4.43464 6.63564 4.71797 6.20231 5.04297L4.12731 4.20964C4.07731 4.19297 4.02731 4.18464 3.97731 4.18464C3.83564 4.18464 3.69397 4.25964 3.61897 4.39297L1.95231 7.2763C1.84397 7.45964 1.89397 7.68464 2.05231 7.80964L3.81064 9.18464C3.77731 9.4513 3.75231 9.7263 3.75231 10.0013C3.75231 10.2763 3.77731 10.5513 3.81064 10.818L2.05231 12.193C1.89397 12.318 1.85231 12.543 1.95231 12.7263L3.61897 15.6096C3.69397 15.743 3.83564 15.818 3.98564 15.818C4.03564 15.818 4.08564 15.8096 4.12731 15.793L6.20231 14.9596C6.63564 15.293 7.10231 15.568 7.61064 15.7763L7.92731 17.9846C7.95231 18.1846 8.12731 18.3346 8.33564 18.3346H11.669C11.8773 18.3346 12.0523 18.1846 12.0773 17.9846L12.394 15.7763C12.9023 15.568 13.369 15.2846 13.8023 14.9596L15.8773 15.793C15.9273 15.8096 15.9773 15.818 16.0273 15.818C16.169 15.818 16.3106 15.743 16.3856 15.6096L18.0523 12.7263C18.1523 12.543 18.1106 12.318 17.9523 12.193L16.194 10.818ZM14.544 9.39297C14.5773 9.6513 14.5856 9.8263 14.5856 10.0013C14.5856 10.1763 14.569 10.3596 14.544 10.6096L14.4273 11.5513L15.169 12.1346L16.069 12.8346L15.4856 13.843L14.4273 13.418L13.5606 13.068L12.8106 13.6346C12.4523 13.9013 12.1106 14.1013 11.769 14.243L10.8856 14.6013L10.7523 15.543L10.5856 16.668H9.41897L9.12731 14.6013L8.24397 14.243C7.88564 14.093 7.55231 13.9013 7.21897 13.6513L6.46064 13.068L5.57731 13.4263L4.51897 13.8513L3.93564 12.843L4.83564 12.143L5.57731 11.5596L5.46064 10.618C5.43564 10.3596 5.41897 10.168 5.41897 10.0013C5.41897 9.83464 5.43564 9.64297 5.46064 9.39297L5.57731 8.4513L4.83564 7.86797L3.93564 7.16797L4.51897 6.15964L5.57731 6.58464L6.44397 6.93464L7.19397 6.36797C7.55231 6.1013 7.89397 5.9013 8.23564 5.75964L9.11897 5.4013L9.25231 4.45964L9.41897 3.33464H10.5773L10.869 5.4013L11.7523 5.75964C12.1106 5.90964 12.444 6.1013 12.7773 6.3513L13.5356 6.93464L14.419 6.5763L15.4773 6.1513L16.0606 7.15964L15.169 7.86797L14.4273 8.4513L14.544 9.39297ZM10.0023 6.66797C8.16064 6.66797 6.66897 8.15964 6.66897 10.0013C6.66897 11.843 8.16064 13.3346 10.0023 13.3346C11.844 13.3346 13.3356 11.843 13.3356 10.0013C13.3356 8.15964 11.844 6.66797 10.0023 6.66797ZM10.0023 11.668C9.08564 11.668 8.33564 10.918 8.33564 10.0013C8.33564 9.08464 9.08564 8.33464 10.0023 8.33464C10.919 8.33464 11.669 9.08464 11.669 10.0013C11.669 10.918 10.919 11.668 10.0023 11.668Z" fill="#68717D"/>
</svg>
