<svg width="178" height="118" viewBox="0 0 178 118" fill="none" xmlns="http://www.w3.org/2000/svg">
<path d="M105.508 21.5239C106.297 26.9264 102.523 31.9437 97.0775 32.731C91.6319 33.5179 86.5774 29.7763 85.788 24.3738C84.9984 18.9715 88.7727 13.9539 94.2183 13.1671C99.6635 12.3798 104.718 16.1214 105.508 21.5239Z" fill="#F5F5F5"/>
<path d="M103.162 21.8624C103.764 25.9791 100.887 29.8028 96.7373 30.4025C92.5877 31.0022 88.7358 28.1508 88.1342 24.034C87.5328 19.917 90.409 16.0933 94.5586 15.4937C98.7083 14.8942 102.56 17.7453 103.162 21.8624Z" fill="#EBEBEB"/>
<path d="M103.126 21.6257C103.081 21.634 103.001 21.3106 102.797 20.7558C102.59 20.2047 102.242 19.4148 101.595 18.591C101.272 18.1808 100.877 17.764 100.402 17.377C99.9244 16.9947 99.3714 16.6364 98.7432 16.3572C98.4299 16.2163 98.1 16.0905 97.754 15.9936C97.4086 15.8947 97.0498 15.8128 96.6791 15.7665C96.3091 15.7188 95.9291 15.6908 95.5434 15.7007C95.158 15.7099 94.7678 15.7467 94.3772 15.813C93.9872 15.8845 93.608 15.9834 93.243 16.1066C92.8772 16.2296 92.5303 16.386 92.1992 16.5571C91.8671 16.7277 91.5584 16.9274 91.2683 17.1384C90.9769 17.348 90.7109 17.5792 90.4655 17.8185C89.9723 18.296 89.5769 18.8218 89.2612 19.344C88.9494 19.8699 88.7225 20.3966 88.5613 20.8922C88.2397 21.8869 88.1871 22.7474 88.1835 23.3355C88.1837 23.9262 88.2205 24.2573 88.1749 24.2649C88.1415 24.2715 88.0283 23.9529 87.9573 23.3475C87.8906 22.746 87.879 21.8435 88.1664 20.7775C88.3107 20.2465 88.5281 19.6782 88.8419 19.1073C89.1596 18.5398 89.5671 17.9665 90.0857 17.4433C90.3437 17.1811 90.6252 16.9276 90.9351 16.6973C91.2437 16.4656 91.5738 16.2465 91.9298 16.0587C92.2851 15.8701 92.6586 15.6988 93.0526 15.564C93.4461 15.4288 93.8553 15.3214 94.2756 15.2445C94.6969 15.1727 95.1181 15.1338 95.5342 15.1263C95.9505 15.118 96.3608 15.1513 96.7595 15.2065C97.1587 15.2608 97.5446 15.3535 97.9144 15.4659C98.2851 15.5761 98.6376 15.7177 98.9703 15.8753C99.6382 16.1892 100.219 16.5878 100.714 17.0119C101.206 17.4402 101.608 17.8997 101.927 18.3486C102.566 19.2511 102.868 20.1021 103.014 20.69C103.156 21.2823 103.16 21.62 103.126 21.6257Z" fill="#E0E0E0"/>
<path d="M97.148 27.2806L97.3573 28.5793L96.1913 28.7646L95.9879 27.5011C94.8223 27.6151 93.6568 27.4324 92.9353 27.0357L93.3485 25.5189C94.0007 25.8552 94.8904 26.0346 95.7434 25.9819L95.4313 24.0453C94.0866 23.9389 92.5717 23.7399 92.3049 22.0816C92.1072 20.8525 92.8349 19.6545 94.6436 19.1528L94.4364 17.8654L95.6024 17.6797L95.8058 18.9437C96.6916 18.8741 97.5799 18.9701 98.2864 19.2739L97.9333 20.793C97.2844 20.5516 96.6462 20.4508 96.052 20.4739L96.3695 22.4452C97.7121 22.5403 99.204 22.7433 99.4672 24.3778C99.6616 25.5843 98.9431 26.769 97.148 27.2806ZM95.157 22.3412L94.8916 20.6948C94.2962 20.9322 94.1056 21.3077 94.167 21.6903C94.2326 22.096 94.6177 22.2609 95.157 22.3412ZM97.6127 24.8166C97.5471 24.4104 97.1736 24.2443 96.6441 24.1499L96.9016 25.7502C97.4643 25.5298 97.6722 25.1876 97.6127 24.8166Z" fill="#E0E0E0"/>
<path d="M73.1935 80.1647L27.9595 66.1638C26.7975 65.8041 26.1486 64.5757 26.5103 63.4203L35.2083 35.6344C35.57 34.4789 36.8054 33.8337 37.9676 34.1933L83.2016 48.1947C84.3636 48.5544 85.0123 49.7828 84.6506 50.938L75.9528 78.7237C75.5908 79.8792 74.3555 80.5244 73.1935 80.1647Z" fill="#E0E0E0"/>
<path d="M75.6925 54.0253C75.1059 55.8996 73.1025 56.9458 71.2176 56.3624C69.3327 55.779 68.2806 53.7867 68.8678 51.9128C69.4545 50.0388 71.4578 48.9923 73.3422 49.5755C75.2269 50.1594 76.2792 52.1512 75.6925 54.0253Z" fill="white"/>
<path d="M75.9347 57.9191C75.7171 57.8917 75.5004 57.8452 75.2863 57.7789C73.3279 57.1723 72.2307 55.0946 72.8404 53.1474C73.4499 51.2001 75.5384 50.1079 77.4978 50.7144C79.4561 51.321 80.5535 53.3989 79.944 55.3462C79.6488 56.2895 79.0018 57.0621 78.122 57.5216C77.4409 57.8777 76.6828 58.0127 75.9347 57.9191ZM76.8195 50.8643C75.2035 50.6618 73.62 51.6346 73.1195 53.234C72.5577 55.028 73.5688 56.9425 75.3734 57.5016C76.248 57.7723 77.176 57.6878 77.9865 57.2646C78.7972 56.841 79.3934 56.1292 79.6654 55.2598C80.2269 53.4655 79.2159 51.5511 77.4112 50.992C77.2149 50.9313 77.017 50.8891 76.8195 50.8643Z" fill="white"/>
<path d="M33.8397 55.3499L32.9853 58.0793L32.7031 57.992L33.4792 55.5123L32.8325 55.3122L32.9108 55.0625L33.8397 55.3499Z" fill="white"/>
<path d="M35.8859 58.7057L35.8078 58.9554L33.8828 58.3594L33.945 58.1605L35.4338 57.4025C35.8387 57.1946 35.955 57.0294 36.0136 56.8422C36.1126 56.5262 35.95 56.2621 35.5306 56.1326C35.209 56.033 34.9313 56.054 34.6862 56.2048L34.54 55.9714C34.83 55.7875 35.2147 55.7526 35.6343 55.8824C36.1911 56.0547 36.4565 56.4448 36.3133 56.901C36.2317 57.1622 36.0758 57.3706 35.5949 57.6153L34.3762 58.2386L35.8859 58.7057Z" fill="white"/>
<path d="M38.921 59.1263L38.372 58.9564L38.1478 59.6738L37.8656 59.5865L38.0899 58.8691L36.541 58.3897L36.6046 58.187L38.626 56.8281L38.9395 56.9251L36.9841 58.2529L38.176 58.622L38.3737 57.9904L38.6481 58.0754L38.4504 58.7069L38.9993 58.8768L38.921 59.1263Z" fill="white"/>
<path d="M43.1273 60.431L42.5788 60.2611L42.3541 60.9785L42.0719 60.8912L42.2966 60.1737L40.748 59.6944L40.8114 59.4917L42.8323 58.1328L43.1458 58.2298L41.1904 59.5575L42.3823 59.9266L42.58 59.2951L42.8546 59.3798L42.6569 60.0114L43.2059 60.1813L43.1273 60.431Z" fill="white"/>
<path d="M45.5547 61.0922C45.4097 61.5562 44.9703 61.8182 44.3001 61.6105C43.9038 61.488 43.5703 61.2348 43.4258 60.9549L43.6327 60.7753C43.7519 61.0132 44.0239 61.2426 44.3768 61.3518C44.8434 61.4963 45.1612 61.3467 45.2651 61.0151C45.3748 60.6644 45.2233 60.3779 44.5256 60.1619L43.9413 59.9812L44.5109 58.6562L46.0125 59.1212L45.9342 59.3709L44.6794 58.9824L44.3134 59.8228L44.6663 59.9321C45.4934 60.1879 45.7058 60.6087 45.5547 61.0922Z" fill="white"/>
<path d="M48.2712 61.9155C48.1112 62.4262 47.605 62.6286 47.0714 62.4634C46.3424 62.2378 46.1036 61.6122 46.3732 60.7506C46.6639 59.8228 47.3247 59.4969 48.0697 59.7275C48.3167 59.804 48.5346 59.9184 48.6741 60.0773L48.4895 60.2679C48.3777 60.1311 48.2007 60.0376 47.9968 59.9746C47.4049 59.7912 46.906 60.0515 46.6739 60.7926C46.6542 60.8549 46.6338 60.9342 46.6162 61.0182C46.8474 60.7605 47.2212 60.6925 47.6016 60.8103C48.147 60.979 48.4273 61.4163 48.2712 61.9155ZM47.9902 61.8369C48.1027 61.4781 47.9078 61.1657 47.4844 61.0347C47.0648 60.9049 46.6981 61.0736 46.592 61.4128C46.498 61.713 46.6599 62.0752 47.1343 62.222C47.5304 62.3447 47.8767 62.1996 47.9902 61.8369Z" fill="white"/>
<path d="M52.0152 63.1107C51.8725 63.5669 51.4297 63.8146 50.767 63.6096C50.3707 63.4871 50.0334 63.2327 49.8887 62.9528L50.0952 62.7732C50.2143 63.0111 50.4901 63.2416 50.8473 63.3521C51.302 63.4928 51.6191 63.3601 51.7252 63.0207C51.8277 62.6932 51.6637 62.4074 51.1539 62.2495L50.9579 62.1888L51.0224 61.9821L52.08 61.2701L50.6761 60.8356L50.7542 60.5859L52.5186 61.132L52.4564 61.331L51.3758 62.0614C51.9544 62.2752 52.1519 62.6741 52.0152 63.1107Z" fill="white"/>
<path d="M54.7766 63.9311C54.6169 64.4418 54.1104 64.6443 53.5774 64.4793C52.8478 64.2535 52.6093 63.6281 52.8794 62.7662C53.1699 61.8385 53.8309 61.5126 54.5756 61.7431C54.8227 61.8196 55.0405 61.934 55.1801 62.0926L54.9957 62.2836C54.8839 62.1465 54.7068 62.053 54.5027 61.99C53.9108 61.8068 53.4122 62.0672 53.1803 62.808C53.1606 62.8703 53.14 62.9496 53.1224 63.0336C53.3536 62.7759 53.7276 62.7079 54.1078 62.8257C54.653 62.9946 54.933 63.4319 54.7766 63.9311ZM54.4961 63.8525C54.6084 63.494 54.4135 63.1813 53.9903 63.0503C53.5705 62.9203 53.2041 63.089 53.098 63.4282C53.0037 63.7284 53.1656 64.0906 53.64 64.2376C54.0364 64.3604 54.3827 64.2152 54.4961 63.8525Z" fill="white"/>
<path d="M57.9013 62.7956L57.8389 62.9946L55.898 65.1695L55.5918 65.0747L57.4973 62.9445L56.0857 62.5075L55.9257 63.0182L55.6476 62.932L55.8856 62.1719L57.9013 62.7956Z" fill="white"/>
<path d="M61.8246 64.0141L61.7625 64.2131L59.8215 66.3878L59.5156 66.2932L61.4212 64.1631L60.0095 63.7262L59.8496 64.2369L59.5714 64.1508L59.8094 63.3906L61.8246 64.0141Z" fill="white"/>
<path d="M63.909 66.817C63.7576 67.3003 63.2523 67.4733 62.5975 67.2706C61.9389 67.0667 61.6327 66.6426 61.7842 66.1593C61.8867 65.8317 62.1468 65.6599 62.5235 65.6523C62.2792 65.4569 62.1912 65.2032 62.2802 64.9184C62.4193 64.474 62.8861 64.3147 63.4666 64.4943C64.0469 64.6739 64.3485 65.0708 64.2092 65.5155C64.1202 65.8001 63.8986 65.958 63.5824 65.9799C63.8914 66.1999 64.0104 66.4934 63.909 66.817ZM63.6207 66.7233C63.7256 66.3882 63.501 66.0878 63.0147 65.9372C62.5287 65.7869 62.1765 65.9089 62.0716 66.244C61.9652 66.5831 62.186 66.8824 62.672 67.0327C63.1581 67.1833 63.5143 67.0624 63.6207 66.7233ZM63.0843 65.7149C63.5119 65.8473 63.8264 65.7352 63.9192 65.4388C64.0158 65.1308 63.8036 64.8599 63.3921 64.7324C62.9768 64.6038 62.6552 64.7095 62.5602 65.014C62.466 65.3139 62.6568 65.5825 63.0843 65.7149Z" fill="white"/>
<path d="M66.7714 67.0115C66.4809 67.9393 65.8197 68.2649 65.0752 68.0346C64.8279 67.9579 64.61 67.8434 64.4707 67.6849L64.6549 67.4939C64.7669 67.631 64.9444 67.7245 65.1481 67.7873C65.74 67.9706 66.2388 67.7101 66.4707 66.9693C66.4904 66.907 66.5111 66.8277 66.5286 66.7437C66.2972 67.0012 65.9229 67.0694 65.5427 66.9516C64.9981 66.7829 64.7175 66.3456 64.8739 65.8466C65.0339 65.3359 65.5401 65.1335 66.0732 65.2984C66.8025 65.5243 67.041 66.1497 66.7714 67.0115ZM66.5528 66.3493C66.6466 66.0491 66.4852 65.6869 66.0108 65.5401C65.6144 65.4174 65.2681 65.5625 65.1547 65.9252C65.0422 66.284 65.2368 66.5962 65.6607 66.7274C66.0796 66.8572 66.4465 66.6887 66.5528 66.3493Z" fill="white"/>
<path d="M69.9747 66.5377L69.1203 69.267L68.8379 69.1797L69.614 66.6998L68.9672 66.4997L69.0453 66.25L69.9747 66.5377Z" fill="white"/>
<path d="M72.0204 69.8858L71.9426 70.1355L70.0176 69.5396L70.08 69.3407L71.5685 68.5826C71.9734 68.3745 72.0897 68.2095 72.1484 68.0221C72.2473 67.7064 72.0843 67.4423 71.6651 67.3125C71.3438 67.2129 71.0664 67.2339 70.8212 67.3847L70.6747 67.1511C70.9648 66.9672 71.35 66.9323 71.7693 67.0621C72.3259 67.2344 72.591 67.6245 72.4486 68.0807C72.3665 68.3417 72.211 68.5503 71.7302 68.7948L70.5115 69.4183L72.0204 69.8858Z" fill="white"/>
<path d="M74.6499 70.1182C74.5073 70.5744 74.0642 70.8222 73.4011 70.6171C73.0055 70.4947 72.668 70.2405 72.5234 69.9604L72.7299 69.7808C72.8491 70.0186 73.1248 70.2495 73.4818 70.3597C73.9368 70.5006 74.2536 70.3677 74.3595 70.0283C74.4622 69.7008 74.2977 69.4147 73.7884 69.2571L73.5924 69.1964L73.6569 68.9897L74.714 68.2777L73.3104 67.8432L73.3888 67.5938L75.1533 68.1399L75.0909 68.3388L74.0103 69.0692C74.5894 69.2828 74.7867 69.6816 74.6499 70.1182Z" fill="white"/>
<path d="M52.6952 66.4009L52.3242 67.5859L74.3082 74.3904L74.6791 73.2054L52.6952 66.4009Z" fill="white"/>
<path d="M62.664 72.0882L62.293 73.2734L73.5682 76.7634L73.9392 75.5781L62.664 72.0882Z" fill="white"/>
<g opacity="0.5">
<path d="M41.0027 54.9868L34.0275 52.8276C33.4061 52.6353 33.0594 51.9787 33.2528 51.3609L34.6979 46.7454C34.8914 46.1278 35.5516 45.7828 36.173 45.9751L43.1475 48.1341C43.7686 48.3264 44.1153 48.983 43.9221 49.6006L42.4779 54.216C42.2845 54.8341 41.624 55.1791 41.0027 54.9868Z" fill="#EBEBEB"/>
</g>
<path d="M33.4961 50.5824L33.6342 50.143L38.3835 51.6132C38.9313 51.7825 39.5163 51.4773 39.6872 50.9319C39.8576 50.3868 39.546 49.7975 39.0025 49.6363L34.2527 48.166L34.3906 47.7266L39.1399 49.1968C39.9314 49.442 40.3754 50.2817 40.1293 51.069C39.8825 51.8566 39.0376 52.2979 38.2461 52.0531L33.4961 50.5824Z" fill="#E0E0E0"/>
<path d="M39.9759 50.7793L39.8379 51.2188L43.0968 52.2308L43.2349 51.7913L39.9759 50.7793Z" fill="#E0E0E0"/>
<path d="M61.6235 47.6734L37.9004 40.3281L37.2664 42.3527L60.9896 49.698L61.6235 47.6734Z" fill="white"/>
<path d="M45.2667 93.3359C45.7658 96.7528 43.3787 99.9262 39.9348 100.424C36.4906 100.922 33.2939 98.5553 32.7946 95.1383C32.295 91.7215 34.6823 88.5482 38.1265 88.0505C41.5705 87.5528 44.7671 89.9191 45.2667 93.3359Z" fill="#F5F5F5"/>
<path d="M43.7833 93.5471C44.1637 96.1509 42.3446 98.5692 39.7199 98.9484C37.0955 99.3277 34.6593 97.5244 34.2788 94.9206C33.8984 92.3168 35.7175 89.8983 38.342 89.5191C40.9666 89.14 43.4029 90.9433 43.7833 93.5471Z" fill="#EBEBEB"/>
<path d="M43.76 93.4C43.7313 93.4052 43.6807 93.2006 43.5514 92.8499C43.4206 92.5013 43.2006 92.002 42.7914 91.4809C42.5873 91.2215 42.3374 90.9579 42.0367 90.7132C41.7346 90.4713 41.3848 90.2449 40.9875 90.0682C40.7893 89.9792 40.5807 89.8997 40.3619 89.8381C40.1435 89.7755 39.9166 89.7239 39.6819 89.6944C39.4479 89.6641 39.2077 89.6464 38.9637 89.6526C38.72 89.6585 38.4732 89.6816 38.2261 89.7236C37.9795 89.7689 37.7396 89.8315 37.5086 89.9093C37.2772 89.987 37.0579 90.0861 36.8484 90.1942C36.6383 90.3021 36.4432 90.4283 36.2598 90.5619C36.0754 90.6945 35.9073 90.8408 35.7519 90.9921C35.44 91.294 35.1899 91.6265 34.9903 91.9571C34.7931 92.2896 34.6495 92.6229 34.5477 92.9363C34.3443 93.5655 34.3108 94.1094 34.3087 94.4816C34.3089 94.8552 34.3322 95.0645 34.3032 95.0693C34.2821 95.0735 34.2104 94.872 34.1656 94.4892C34.1233 94.1087 34.116 93.5381 34.2978 92.8638C34.3891 92.528 34.5265 92.1686 34.725 91.8075C34.926 91.4485 35.1837 91.086 35.5117 90.7549C35.675 90.589 35.853 90.4288 36.049 90.2832C36.2444 90.1366 36.453 89.9981 36.6782 89.8794C36.903 89.7602 37.1391 89.6519 37.3883 89.5667C37.637 89.4812 37.896 89.4133 38.1618 89.3647C38.4283 89.3194 38.6946 89.2946 38.9578 89.2898C39.2212 89.2847 39.4806 89.3057 39.7327 89.3406C39.9852 89.375 40.2292 89.4336 40.4632 89.5046C40.6977 89.5742 40.9205 89.6639 41.1311 89.7637C41.5533 89.9622 41.9211 90.2143 42.2342 90.4826C42.5451 90.7535 42.799 91.044 43.001 91.3282C43.4052 91.8991 43.596 92.4374 43.6883 92.8091C43.7787 93.1829 43.7811 93.3965 43.76 93.4Z" fill="#E0E0E0"/>
<path d="M39.9794 96.9783L40.1119 97.7998L39.3745 97.9171L39.2458 97.118C38.5087 97.1902 37.7715 97.0746 37.3151 96.8237L37.5764 95.8644C37.9889 96.077 38.5516 96.1905 39.0911 96.1572L38.8939 94.9324C38.0435 94.8649 37.0854 94.7391 36.9164 93.6903C36.7913 92.913 37.2518 92.1554 38.3955 91.838L38.2645 91.0238L39.0021 90.9062L39.1307 91.7058C39.6908 91.6617 40.2528 91.7226 40.6997 91.9147L40.4764 92.8754C40.0661 92.7227 39.6624 92.659 39.2867 92.6737L39.4874 93.9204C40.3366 93.9806 41.28 94.109 41.4466 95.1427C41.5688 95.9054 41.1148 96.6545 39.9794 96.9783ZM38.7201 93.8544L38.5523 92.8131C38.1757 92.9632 38.0551 93.2006 38.0941 93.4428C38.1354 93.6993 38.3791 93.8034 38.7201 93.8544ZM40.2732 95.4198C40.2317 95.163 39.9956 95.0577 39.6607 94.998L39.8237 96.01C40.1795 95.871 40.311 95.6543 40.2732 95.4198Z" fill="#E0E0E0"/>
<path d="M87.816 83.1962L51.0797 44.5566C50.6926 44.1493 50.7106 43.5071 51.1203 43.1222L75.23 20.457C75.6396 20.0721 76.2854 20.09 76.6725 20.4974L113.409 59.1369C113.796 59.5443 113.778 60.1864 113.368 60.5713L89.2585 83.2363C88.8491 83.6215 88.2031 83.6035 87.816 83.1962Z" fill="#E8505B"/>
<g opacity="0.3">
<path d="M87.816 83.1962L51.0797 44.5566C50.6926 44.1493 50.7106 43.5071 51.1203 43.1222L75.23 20.457C75.6396 20.0721 76.2854 20.09 76.6725 20.4974L113.409 59.1369C113.796 59.5443 113.778 60.1864 113.368 60.5713L89.2585 83.2363C88.8491 83.6215 88.2031 83.6035 87.816 83.1962Z" fill="black"/>
</g>
<path d="M113.141 58.8576L76.9417 20.783C76.4062 20.2199 75.5129 20.1949 74.9466 20.7273L68.0965 27.167C67.9598 27.2956 67.8933 27.4842 67.9263 27.6683C68.6098 31.4764 71.3508 34.8823 74.6146 37.1378C78.5612 39.8652 83.2355 41.3003 87.6793 43.1204C92.1232 44.9404 96.5808 47.3382 99.2451 51.3157C101.759 55.0691 102.354 59.7251 103.632 64.0519C103.973 65.2069 104.4 66.3742 104.924 67.4921C105.087 67.8404 105.544 67.9303 105.825 67.6663L113.085 60.8414C113.651 60.3092 113.676 59.4209 113.141 58.8576Z" fill="#E8505B"/>
<path d="M76.4051 31.8577C76.0776 32.1654 75.6426 32.0852 75.1722 31.5903L74.2461 30.6163L76.1398 28.8359L77.0146 29.7561C77.4622 30.2269 77.495 30.6546 77.1999 30.9319C77.0106 31.1098 76.7725 31.1504 76.5456 31.0735C76.6776 31.3467 76.6432 31.634 76.4051 31.8577ZM76.2219 29.5796L75.7755 29.9992L76.1872 30.4322C76.3892 30.6446 76.575 30.6895 76.7239 30.5495C76.8727 30.4096 76.8356 30.225 76.6337 30.0126L76.2219 29.5796ZM76.0342 31.3758C76.1937 31.2259 76.1545 31.0336 75.9395 30.8075L75.4563 30.2994L74.9882 30.7393L75.4715 31.2474C75.6865 31.4737 75.8716 31.5285 76.0342 31.3758Z" fill="white"/>
<path d="M77.7871 33.5317L76.9558 32.6573L76.3911 32.8718L75.9668 32.4253L78.6584 31.4844L79.0678 31.9148L77.9746 34.537L77.5396 34.0797L77.7871 33.5317ZM77.9894 33.0816L78.4306 32.1013L77.4217 32.4843L77.9894 33.0816Z" fill="white"/>
<path d="M81.6942 34.6804L79.8005 36.4608L79.4602 36.1028L79.7175 34.0831L78.5676 35.164L78.1582 34.7335L80.0519 32.9531L80.3948 33.3137L80.1349 35.3306L81.2846 34.2497L81.6942 34.6804Z" fill="white"/>
<path d="M81.6211 36.8919L81.1156 36.8884L80.6366 37.3387L80.2246 36.9054L82.1183 35.125L82.5303 35.5583L81.6458 36.3897L83.323 36.3921L83.7832 36.8761L82.1976 36.8896L81.9332 38.7023L81.4497 38.1937L81.6211 36.8919Z" fill="white"/>
<path d="M68.1967 38.9122L67.868 38.5665L67.4109 38.996L67.2419 38.8183L67.6987 38.3888L66.7715 37.4134L66.9006 37.2921L68.9236 37.125L69.1116 37.3228L67.1488 37.4941L67.8625 38.2446L68.2648 37.8665L68.429 38.0393L68.0267 38.4173L68.3554 38.7631L68.1967 38.9122Z" fill="white"/>
<path d="M69.4459 40.1399C69.1554 40.4129 68.7322 40.4132 68.3356 39.9959C68.0983 39.7465 67.9575 39.425 67.9673 39.1633L68.1911 39.1166C68.1799 39.3377 68.2858 39.6169 68.4994 39.8416C68.7716 40.1281 69.0559 40.1599 69.2719 39.957C69.4805 39.7609 69.4784 39.4866 69.1732 39.1657L69.0559 39.0422L69.1876 38.9186L70.2466 38.8303L69.406 37.9463L69.5648 37.7969L70.6214 38.9082L70.4946 39.0274L69.4117 39.1199C69.7442 39.5088 69.724 39.8784 69.4459 40.1399Z" fill="white"/>
<path d="M70.7859 41.5267C70.4904 41.8045 70.0644 41.8165 69.6631 41.3941C69.426 41.1449 69.2876 40.826 69.2974 40.5643L69.5212 40.5176C69.5098 40.7383 69.6132 41.0153 69.8245 41.2374C70.1038 41.5312 70.3957 41.5515 70.6067 41.353C70.8303 41.143 70.8381 40.8739 70.4199 40.4343L70.0701 40.0664L71.0263 39.3359L71.9256 40.2816L71.7668 40.431L71.0157 39.6408L70.4055 40.102L70.6169 40.3243C71.1123 40.8456 71.094 41.2372 70.7859 41.5267Z" fill="white"/>
<path d="M72.2433 43.0414C71.9179 43.3472 71.4675 43.2887 71.1483 42.9531C70.7118 42.4941 70.7949 41.9432 71.3436 41.4273C71.9346 40.8718 72.5478 40.9034 72.9938 41.3724C73.1416 41.5279 73.2529 41.6995 73.2893 41.871L73.0771 41.9347C73.0522 41.7901 72.9617 41.6504 72.8397 41.522C72.4852 41.1491 72.0167 41.1359 71.5449 41.5796C71.5052 41.6169 71.4578 41.6662 71.4105 41.72C71.6839 41.6268 71.9832 41.7287 72.2108 41.9683C72.5369 42.3116 72.5611 42.7426 72.2433 43.0414ZM72.0715 42.8707C72.3 42.656 72.287 42.3503 72.0335 42.0837C71.7824 41.8196 71.4471 41.7934 71.2311 41.9963C71.0398 42.1762 71.009 42.5045 71.2928 42.8032C71.5299 43.0527 71.8406 43.0876 72.0715 42.8707Z" fill="white"/>
<path d="M75.2753 47.2671L75.4295 46.3413L74.4887 46.4402L74.3008 46.2424L75.4597 46.1258L75.6303 45.0391L75.8183 45.2368L75.6778 46.1077L76.5602 46.017L76.7434 46.2096L75.6427 46.3182L75.4654 47.4673L75.2753 47.2671Z" fill="white"/>
<path d="M76.5289 48.5875L76.6834 47.6616L75.7427 47.7605L75.5547 47.5627L76.7136 47.4462L76.8842 46.3594L77.0722 46.5571L76.9317 47.428L77.8141 47.3371L77.9973 47.5297L76.8966 47.6383L76.7193 48.7873L76.5289 48.5875Z" fill="white"/>
<path d="M77.7809 49.9078L77.9354 48.9819L76.9946 49.0808L76.8066 48.8831L77.9655 48.7665L78.1362 47.6797L78.3241 47.8775L78.1836 48.7483L79.0661 48.6577L79.2493 48.8502L78.1485 48.9588L77.9712 50.1079L77.7809 49.9078Z" fill="white"/>
<path d="M79.0348 51.2203L79.1893 50.2944L78.2485 50.3933L78.0605 50.1956L79.2194 50.079L79.3901 48.9922L79.5781 49.19L79.4376 50.061L80.32 49.9702L80.5032 50.1627L79.4024 50.2713L79.2251 51.4204L79.0348 51.2203Z" fill="white"/>
<path d="M83.3649 55.7747L83.5194 54.8489L82.5786 54.9478L82.3906 54.75L83.5495 54.6334L83.7202 53.5469L83.9081 53.7446L83.7676 54.6155L84.65 54.5246L84.8333 54.7172L83.7325 54.8258L83.5552 55.9748L83.3649 55.7747Z" fill="white"/>
<path d="M84.6168 57.0953L84.7713 56.1694L83.8305 56.2683L83.6426 56.0706L84.8015 55.954L84.9721 54.8672L85.1601 55.065L85.0196 55.9358L85.902 55.8449L86.0852 56.0377L84.9845 56.1463L84.8072 57.2954L84.6168 57.0953Z" fill="white"/>
<path d="M85.8707 58.4151L86.0252 57.4893L85.0845 57.5882L84.8965 57.3906L86.0554 57.274L86.226 56.1875L86.414 56.3853L86.2735 57.2561L87.1559 57.1652L87.3391 57.3578L86.2384 57.4664L86.0611 58.6155L85.8707 58.4151Z" fill="white"/>
<path d="M87.1249 59.7281L87.2792 58.8022L86.3384 58.9011L86.1504 58.7034L87.3093 58.5868L87.4799 57.5L87.6679 57.6978L87.5274 58.5688L88.4098 58.478L88.593 58.6708L87.4923 58.7794L87.315 59.9284L87.1249 59.7281Z" fill="white"/>
<path d="M92.751 62.1868L91.0127 63.8209L90.8438 63.6432L92.4232 62.1585L92.0356 61.7509L92.1946 61.6016L92.751 62.1868Z" fill="white"/>
<path d="M92.9908 64.9055C92.7003 65.1786 92.2774 65.1788 91.8805 64.7615C91.6432 64.5121 91.5025 64.1907 91.5122 63.9289L91.736 63.8822C91.7248 64.1031 91.8305 64.3823 92.0443 64.6072C92.3165 64.8937 92.6008 64.9256 92.8168 64.7226C93.0254 64.5265 93.0233 64.2523 92.7181 63.9313L92.6008 63.8079L92.7326 63.6842L93.7915 63.5959L92.9509 62.7119L93.1097 62.5625L94.1663 63.6738L94.0396 63.793L92.9566 63.8855C93.2889 64.2744 93.2689 64.644 92.9908 64.9055Z" fill="white"/>
<path d="M94.5812 66.6622L94.2525 66.3165L93.7954 66.746L93.6264 66.5683L94.0835 66.1388L93.1562 65.1634L93.2854 65.0421L95.3084 64.875L95.4964 65.0728L93.5336 65.2441L94.2473 65.9946L94.6495 65.6165L94.8138 65.7893L94.4115 66.1673L94.7402 66.5131L94.5812 66.6622Z" fill="white"/>
<path d="M95.552 68.281L95.393 68.4304L94.2402 67.2178L94.3667 67.0989L95.7577 67.1522C96.137 67.1654 96.2889 67.0925 96.408 66.9804C96.6091 66.7914 96.5996 66.5341 96.3485 66.2698C96.1558 66.0671 95.9459 65.9699 95.7065 65.9802L95.6956 65.7513C95.9813 65.7353 96.2751 65.866 96.5262 66.1303C96.8597 66.481 96.892 66.8711 96.6015 67.1444C96.4351 67.3009 96.2369 67.3889 95.7876 67.3717L94.6477 67.3302L95.552 68.281Z" fill="white"/>
<path d="M61.861 40.3428C62.1111 40.1077 62.4714 40.1304 62.7156 40.3874C62.8511 40.5299 62.9121 40.6979 62.8913 40.8648L62.661 40.8492C62.6722 40.7336 62.6394 40.6328 62.5611 40.5504C62.4142 40.3961 62.2011 40.389 62.0447 40.5361C61.8883 40.6831 61.8833 40.895 62.0302 41.0496C62.1085 41.132 62.2077 41.1704 62.3257 41.1645L62.3285 41.3939C62.1584 41.4062 61.9932 41.3363 61.8567 41.1928C61.6135 40.9368 61.6108 40.5778 61.861 40.3428Z" fill="white"/>
<path d="M62.9964 42.0057L62.6324 41.6229L62.385 41.7168L62.1992 41.5214L63.3783 41.1094L63.5575 41.2979L63.0785 42.4466L62.8882 42.2464L62.9964 42.0057ZM63.0852 41.8084L63.2786 41.3794L62.8367 41.5472L63.0852 41.8084Z" fill="white"/>
<path d="M63.6615 43.0629L63.7412 42.6867L63.7322 42.6773L63.5744 42.5111L63.3434 42.7282L63.1621 42.5376L63.9916 41.7578L64.3307 42.1146C64.5403 42.3351 64.5562 42.581 64.3704 42.7559C64.246 42.8727 64.0953 42.8963 63.9472 42.8323L63.8565 43.2682L63.6615 43.0629ZM64.1644 42.2513L64.0165 42.0958L63.7274 42.3676L63.8753 42.5232C63.9864 42.64 64.097 42.6478 64.1869 42.563C64.278 42.4771 64.2752 42.3679 64.1644 42.2513Z" fill="white"/>
<path d="M64.0059 43.2637L64.2119 43.1929C64.2268 43.3102 64.2899 43.447 64.3844 43.5464C64.4919 43.6594 64.5733 43.6696 64.6244 43.6217C64.7796 43.4758 64.2171 43.0966 64.5251 42.807C64.6661 42.6744 64.8911 42.6774 65.1137 42.9116C65.2122 43.0152 65.2884 43.145 65.3126 43.267L65.1109 43.3453C65.0817 43.2273 65.0281 43.1282 64.9585 43.0553C64.851 42.9422 64.767 42.9387 64.7148 42.9878C64.5619 43.1315 65.1232 43.5119 64.819 43.7982C64.6804 43.9287 64.453 43.9254 64.229 43.6899C64.1048 43.5591 64.0184 43.3904 64.0059 43.2637Z" fill="white"/>
<path d="M66.5681 44.4671L65.7387 45.2468L65.5573 45.0561L65.8974 44.7366L65.541 44.3618L65.2009 44.6814L65.0195 44.4907L65.849 43.7109L66.0303 43.9016L65.7033 44.2091L66.0598 44.5841L66.3868 44.2766L66.5681 44.4671Z" fill="white"/>
<path d="M66.2927 45.0052C66.5393 44.7734 66.9031 44.7928 67.1509 45.0533C67.397 45.3122 67.3984 45.6749 67.1509 45.9076C66.9033 46.1403 66.5392 46.1188 66.2931 45.8597C66.0451 45.5992 66.0461 45.2369 66.2927 45.0052ZM66.9669 45.7143C67.1245 45.5661 67.1271 45.3542 66.9873 45.2069C66.8471 45.0594 66.6339 45.0502 66.4766 45.1984C66.319 45.3466 66.3164 45.5586 66.4567 45.7061C66.5962 45.8531 66.8093 45.8625 66.9669 45.7143Z" fill="white"/>
<path d="M67.7025 45.6641L67.8839 45.8548L67.2108 46.4875L67.604 46.9012L67.4476 47.0482L66.873 46.4438L67.7025 45.6641Z" fill="white"/>
<path d="M68.3803 46.375L68.7363 46.7495C68.9931 47.0195 69.0054 47.3582 68.7541 47.5944C68.5027 47.8306 68.1636 47.7993 67.9068 47.5293L67.5508 47.1547L68.3803 46.375ZM68.0556 47.3716C68.2115 47.5354 68.4116 47.5503 68.5704 47.4011C68.7291 47.2517 68.7253 47.0521 68.5697 46.8883L68.4038 46.7139L67.8897 47.1972L68.0556 47.3716Z" fill="white"/>
<path d="M69.2396 48.6248L69.0856 48.7697L68.4785 48.1313L69.308 47.3516L69.9006 47.9748L69.7466 48.1197L69.3343 47.6862L69.1542 47.8557L69.5183 48.2384L69.369 48.3789L69.0049 47.9961L68.8129 48.1766L69.2396 48.6248Z" fill="white"/>
<path d="M69.7296 49.4457L69.8093 49.0693L69.8003 49.0598L69.6425 48.8937L69.4116 49.1108L69.2305 48.9204L70.0599 48.1406L70.3991 48.4972C70.6087 48.7176 70.6246 48.9636 70.4387 49.1384C70.3144 49.2553 70.1637 49.2789 70.0156 49.2149L69.9249 49.6508L69.7296 49.4457ZM70.2323 48.6339L70.0844 48.4783L69.7953 48.7502L69.9432 48.9057C70.0543 49.0226 70.1649 49.0303 70.2548 48.9456C70.3459 48.8597 70.3433 48.7504 70.2323 48.6339Z" fill="white"/>
<path d="M58.5403 43.3072L58.9811 43.2799C58.9467 43.4755 58.978 43.6268 59.0857 43.7401C59.226 43.8876 59.3886 43.8812 59.5644 43.716L60.3246 43.0014L59.7937 42.443L60.0906 42.1641L60.969 43.0878L59.9325 44.0622C59.5376 44.4334 59.1557 44.4186 58.7997 44.044C58.5966 43.8302 58.4998 43.5647 58.5403 43.3072Z" fill="white"/>
<path d="M59.7991 44.6327C59.9315 44.5083 60.1112 44.5244 60.2279 44.6471C60.3445 44.7696 60.3504 44.9489 60.218 45.0733C60.0877 45.1958 59.9014 45.1861 59.7848 45.0636C59.6681 44.9407 59.6688 44.7549 59.7991 44.6327Z" fill="white"/>
<path d="M64.0637 46.345L61.9714 47.3275L61.5957 46.9324L62.3454 45.5655L60.9204 46.222L60.5469 45.8291L61.6486 43.8047L62.0112 44.1861L61.2287 45.6004L62.708 44.9191L63.0318 45.2596L62.2448 46.6872L63.729 45.9929L64.0637 46.345Z" fill="white"/>
<path d="M64.2132 46.5023C64.3249 46.3973 64.4958 46.4042 64.6209 46.5359C64.746 46.6675 64.7481 46.8332 64.6385 46.9361C64.5198 47.0477 64.3489 47.0409 64.2236 46.9092C64.0988 46.7775 64.1014 46.6076 64.2132 46.5023ZM63.8844 46.8934L64.221 47.2474L62.9928 48.4019L62.6562 48.0479L63.8844 46.8934Z" fill="white"/>
<path d="M64.9985 47.1328L65.3351 47.4868L63.6412 49.0791L63.3047 48.7251L64.9985 47.1328Z" fill="white"/>
<path d="M65.6489 47.8203L65.9855 48.1743L64.2916 49.7666L63.9551 49.4126L65.6489 47.8203Z" fill="white"/>
<path d="M66.1604 48.5492C66.2722 48.4442 66.4431 48.451 66.5684 48.5827C66.6935 48.7144 66.6956 48.8801 66.586 48.983C66.4671 49.0946 66.2964 49.0878 66.1711 48.9561C66.0458 48.8244 66.0484 48.6545 66.1604 48.5492ZM65.8317 48.9403L66.1683 49.2943L64.9401 50.4488L64.6035 50.0948L65.8317 48.9403Z" fill="white"/>
<path d="M66.9804 51.1987L66.2795 51.8576L65.9643 51.526L66.1172 51.3823C65.943 51.4217 65.7626 51.3502 65.5922 51.1711C65.3202 50.885 65.3181 50.5646 65.5305 50.3649C65.7474 50.161 66.0429 50.1716 66.3965 50.5435L66.6642 50.8253C66.8171 50.6816 66.8197 50.507 66.6384 50.3163C66.5154 50.1872 66.3445 50.0937 66.1898 50.0718L66.318 49.7109C66.5411 49.7548 66.7815 49.9028 66.9671 50.098C67.3209 50.4699 67.3525 50.8489 66.9804 51.1987ZM66.331 51.1385L66.4566 51.0205L66.2254 50.7774C66.0681 50.612 65.9565 50.6174 65.8744 50.6946C65.7854 50.7784 65.7973 50.9093 65.9159 51.034C66.0284 51.1522 66.1801 51.2027 66.331 51.1385Z" fill="white"/>
<path d="M69.2466 53.5805L68.5436 54.2415L68.207 53.8875L68.8554 53.2779C69.0541 53.0913 69.061 52.9169 68.9252 52.7738C68.774 52.6148 68.5654 52.6002 68.3464 52.8062L67.73 53.3856L67.3935 53.0316L68.0419 52.422C68.2403 52.2353 68.2519 52.0656 68.1116 51.9181C67.9626 51.7614 67.7542 51.7468 67.5352 51.9528L66.9188 52.5322L66.582 52.1779L67.8102 51.0234L68.1318 51.3616L67.9904 51.4947C68.1819 51.4869 68.3661 51.5717 68.5149 51.7284C68.6767 51.8985 68.7486 52.1062 68.696 52.3188C68.9141 52.2985 69.1407 52.3866 69.3156 52.5707C69.5914 52.8609 69.6211 53.2286 69.2466 53.5805Z" fill="white"/>
<path d="M68.8457 54.3304L69.2136 54.2081C69.2461 54.3835 69.3557 54.5942 69.4984 54.7443C69.6536 54.9076 69.7552 54.9282 69.8238 54.8638C70.0245 54.675 69.1177 54.1303 69.6085 53.6689C69.8416 53.4499 70.2042 53.5042 70.5433 53.8608C70.7031 54.0288 70.841 54.2513 70.8827 54.4316L70.517 54.5518C70.4712 54.367 70.3796 54.2251 70.274 54.114C70.123 53.9552 70.0077 53.9342 69.9438 53.9943C69.7338 54.1919 70.6385 54.7384 70.1544 55.1937C69.9263 55.4082 69.5634 55.3497 69.2157 54.9839C69.0194 54.7771 68.878 54.5147 68.8457 54.3304Z" fill="white"/>
<path d="M83.0282 67.9827C83.5555 67.4868 84.1308 67.4963 84.5022 67.8869C84.8756 68.2796 84.8507 68.849 84.3233 69.3446C83.7962 69.8402 83.2228 69.8331 82.8497 69.4404C82.4783 69.0499 82.5008 68.4783 83.0282 67.9827ZM83.9713 68.9746C84.3345 68.6333 84.3644 68.3645 84.1894 68.1809C84.0169 67.9992 83.7452 68.0138 83.382 68.3551C83.0192 68.6961 82.9895 68.9651 83.162 69.1469C83.3369 69.3305 83.6085 69.3158 83.9713 68.9746Z" fill="white"/>
<path d="M85.4459 71.1103C85.1193 71.4173 84.6615 71.3447 84.342 71.0086C83.9255 70.5706 83.9426 70.0384 84.4586 69.5534C85.0108 69.0342 85.6343 69.076 86.0895 69.5548C86.2493 69.7229 86.366 69.9228 86.4009 70.1007L85.9998 70.2199C85.9749 70.0754 85.8985 69.9539 85.7969 69.8472C85.5444 69.5815 85.2249 69.5596 84.9081 69.8357C85.0904 69.8409 85.2655 69.9296 85.4229 70.095C85.7148 70.4016 85.7471 70.8271 85.4459 71.1103ZM85.0887 70.7709C85.2349 70.6336 85.2268 70.4389 85.0716 70.2756C84.9185 70.1144 84.7099 70.0953 84.5708 70.226C84.4337 70.3549 84.4306 70.5515 84.5988 70.7285C84.7476 70.8852 84.9425 70.9083 85.0887 70.7709Z" fill="white"/>
<path d="M87.5678 70.5234L87.8678 70.839L85.0051 72.1115L84.7051 71.7959L87.5678 70.5234Z" fill="white"/>
<path d="M87.3629 73.5305L87.0615 73.8139L85.9199 72.6131L86.1596 72.3878L87.3247 72.4536C87.5929 72.4675 87.6992 72.4156 87.7768 72.3427C87.9024 72.2247 87.8934 72.0694 87.7334 71.9014C87.604 71.7652 87.4415 71.6991 87.2606 71.7225L87.1795 71.2915C87.4764 71.2446 87.8044 71.3576 88.0761 71.6437C88.4129 71.9979 88.4546 72.4057 88.1646 72.6783C88.0094 72.8241 87.8269 72.9138 87.4075 72.8869L86.7133 72.8475L87.3629 73.5305Z" fill="white"/>
<path d="M88.9022 75.0825L88.6563 74.8239L88.3208 75.1394L87.9799 74.7809L88.3155 74.4654L87.502 73.6094L87.7507 73.3755L89.4763 73.1719L89.8432 73.5577L88.2218 73.7664L88.6274 74.193L88.9264 73.912L89.2568 74.2594L88.9578 74.5404L89.2036 74.7991L88.9022 75.0825Z" fill="white"/>
<path d="M96.4014 55.4231C97.3014 54.0456 96.9485 52.2142 95.7388 51.0953C95.3605 50.7456 94.9304 50.4598 94.479 50.2726C93.3222 49.7931 91.791 50.1431 91.1839 51.2334C90.6881 52.1236 90.8884 53.2342 91.2351 54.1914C91.5983 55.1942 92.1878 56.2189 93.1853 56.6083C94.1463 56.9833 95.3009 56.6392 96.0188 55.9017C96.1624 55.7544 96.2899 55.5937 96.4014 55.4231Z" fill="#E8505B"/>
<path d="M122.551 60.1083V101.651C122.551 103.924 120.697 105.767 118.411 105.767H57.7194C55.4332 105.767 53.5801 103.924 53.5801 101.651V60.1083C53.5801 57.8349 55.4334 55.9922 57.7194 55.9922H118.411C120.697 55.9922 122.551 57.8349 122.551 60.1083Z" fill="#E8505B"/>
<path d="M122.551 60.1099C122.551 60.1099 122.547 60.0597 122.541 59.9608C122.531 59.8621 122.536 59.713 122.498 59.5204C122.443 59.1362 122.302 58.5545 121.89 57.9078C121.681 57.5897 121.409 57.2541 121.044 56.9534C120.678 56.6558 120.226 56.3894 119.693 56.2166C119.561 56.1711 119.42 56.144 119.28 56.1057C119.138 56.0765 118.991 56.0602 118.842 56.0361C118.692 56.029 118.539 56.0217 118.383 56.0144C118.226 56.0146 118.067 56.0149 117.905 56.0151C117.258 56.016 116.568 56.017 115.838 56.0179C109.993 56.0226 101.538 56.0293 91.0908 56.0375C85.8666 56.0399 80.1448 56.0422 74.0019 56.0451C70.9305 56.046 67.7538 56.047 64.4817 56.0481C62.8458 56.0486 61.1856 56.0491 59.5032 56.0496C59.0826 56.0496 58.6604 56.0498 58.237 56.0498C57.8124 56.0545 57.39 56.0349 56.977 56.1206C56.5648 56.2004 56.1618 56.3361 55.7875 56.5338C55.417 56.7375 55.0762 56.9954 54.7793 57.2987C54.4786 57.5994 54.2398 57.9588 54.0509 58.3395C53.863 58.7213 53.731 59.1345 53.6797 59.5601C53.6223 59.9827 53.641 60.4203 53.6382 60.8576C53.6382 61.2947 53.6384 61.7331 53.6384 62.1726C53.6387 63.931 53.6391 65.7097 53.6394 67.5071C53.6399 71.1023 53.6403 74.7731 53.6408 78.5099C53.6413 85.9838 53.6418 93.722 53.642 101.648C53.6434 102.626 54.0084 103.592 54.6542 104.321C55.2931 105.055 56.2042 105.546 57.1673 105.666C57.6456 105.728 58.1409 105.702 58.6307 105.708C59.1213 105.708 59.6109 105.708 60.0996 105.708C61.0772 105.708 62.0514 105.708 63.0219 105.708C66.9042 105.708 70.7298 105.709 74.4886 105.709C82.0064 105.71 89.2581 105.712 96.166 105.713C103.074 105.715 109.638 105.717 115.781 105.718C116.549 105.719 117.311 105.719 118.065 105.719C118.444 105.722 118.814 105.714 119.178 105.646C119.538 105.57 119.895 105.467 120.22 105.297C120.389 105.225 120.537 105.118 120.695 105.028C120.838 104.916 120.994 104.82 121.123 104.692C121.401 104.459 121.628 104.175 121.831 103.882C122.221 103.283 122.459 102.591 122.491 101.89C122.516 99.0603 122.5 96.3348 122.507 93.7388C122.515 83.3503 122.522 74.9435 122.527 69.1324C122.532 66.2282 122.536 63.973 122.538 62.4426C122.541 61.6786 122.543 61.0959 122.544 60.7028C122.547 60.3108 122.551 60.1099 122.551 60.1099C122.551 60.1099 122.556 60.3108 122.558 60.7028C122.559 61.0959 122.561 61.6786 122.564 62.4426C122.566 63.973 122.57 66.2282 122.575 69.1324C122.58 74.9435 122.587 83.3503 122.595 93.7388C122.591 96.3371 122.61 99.0549 122.587 101.895C122.555 102.613 122.312 103.321 121.913 103.935C121.705 104.235 121.473 104.526 121.189 104.765C121.057 104.896 120.898 104.995 120.751 105.109C120.59 105.202 120.438 105.311 120.265 105.385C119.932 105.559 119.567 105.665 119.198 105.743C118.826 105.814 118.441 105.822 118.066 105.819C117.312 105.82 116.55 105.82 115.782 105.82C109.639 105.822 103.075 105.824 96.1669 105.826C89.2588 105.827 82.0074 105.828 74.4896 105.83C70.7307 105.83 66.9051 105.83 63.0228 105.83C62.0521 105.83 61.0781 105.83 60.1005 105.831C59.6119 105.831 59.122 105.831 58.6317 105.831C58.1421 105.825 57.6503 105.852 57.1517 105.788C56.1594 105.664 55.2203 105.158 54.5624 104.402C53.8971 103.651 53.5205 102.655 53.5195 101.648C53.52 93.722 53.5205 85.9838 53.5207 78.5099C53.5212 74.7731 53.5217 71.1021 53.5221 67.5071C53.5224 65.7095 53.5229 63.931 53.5231 62.1726C53.5231 61.7329 53.5233 61.2947 53.5233 60.8576C53.5267 60.4219 53.5072 59.9839 53.5665 59.5445C53.6194 59.1069 53.7552 58.6819 53.9486 58.2894C54.1428 57.8979 54.3886 57.5288 54.6979 57.2199C55.0031 56.9084 55.3534 56.6433 55.7343 56.4345C56.1188 56.2313 56.5332 56.0918 56.9571 56.0101L57.2772 55.9618L57.5998 55.9441C57.815 55.932 58.0251 55.9408 58.2375 55.9382C58.6609 55.9382 59.0831 55.9384 59.5037 55.9384C61.1863 55.9389 62.8463 55.9393 64.4822 55.9398C67.7543 55.941 70.931 55.9419 74.0024 55.9429C80.1453 55.9455 85.8671 55.9481 91.0913 55.9504C101.538 55.9587 109.993 55.9653 115.838 55.97C116.569 55.971 117.258 55.9719 117.906 55.9729C118.068 55.9731 118.227 55.9733 118.383 55.9736C118.541 55.9816 118.695 55.9894 118.847 55.9969C118.997 56.0217 119.145 56.0387 119.289 56.0687C119.43 56.1076 119.572 56.1355 119.705 56.1819C120.242 56.3582 120.697 56.6287 121.064 56.9298C121.43 57.2343 121.703 57.5734 121.912 57.8946C122.322 58.5474 122.46 59.1329 122.51 59.5188C122.547 59.7123 122.54 59.8619 122.547 59.9605C122.551 60.0597 122.551 60.1099 122.551 60.1099Z" fill="#263238"/>
<path d="M120.135 59.0614C120.135 59.0274 120.454 59 120.847 59C121.24 59 121.559 59.0276 121.559 59.0614C121.559 59.0951 121.24 59.1227 120.847 59.1227C120.454 59.123 120.135 59.0953 120.135 59.0614Z" fill="#263238"/>
<path d="M114.326 59.0614C114.326 59.0274 114.976 59 115.778 59C116.58 59 117.23 59.0276 117.23 59.0614C117.23 59.0951 116.58 59.1227 115.778 59.1227C114.976 59.123 114.326 59.0953 114.326 59.0614Z" fill="#263238"/>
<path d="M108.518 59.0614C108.518 59.0274 109.168 59 109.97 59C110.772 59 111.422 59.0276 111.422 59.0614C111.422 59.0951 110.772 59.1227 109.97 59.1227C109.168 59.123 108.518 59.0953 108.518 59.0614Z" fill="#263238"/>
<path d="M102.709 59.0614C102.709 59.0274 103.359 59 104.161 59C104.963 59 105.613 59.0276 105.613 59.0614C105.613 59.0951 104.963 59.1227 104.161 59.1227C103.359 59.123 102.709 59.0953 102.709 59.0614Z" fill="#263238"/>
<path d="M96.8984 59.0614C96.8984 59.0274 97.5487 59 98.3504 59C99.1526 59 99.8027 59.0276 99.8027 59.0614C99.8027 59.0951 99.1526 59.1227 98.3504 59.1227C97.5487 59.123 96.8984 59.0953 96.8984 59.0614Z" fill="#263238"/>
<path d="M91.0898 59.0614C91.0898 59.0274 91.7401 59 92.5418 59C93.344 59 93.9941 59.0276 93.9941 59.0614C93.9941 59.0951 93.344 59.1227 92.5418 59.1227C91.7399 59.123 91.0898 59.0953 91.0898 59.0614Z" fill="#263238"/>
<path d="M85.2812 59.0614C85.2812 59.0274 85.9315 59 86.7333 59C87.5354 59 88.1855 59.0276 88.1855 59.0614C88.1855 59.0951 87.5354 59.1227 86.7333 59.1227C85.9315 59.123 85.2812 59.0953 85.2812 59.0614Z" fill="#263238"/>
<path d="M79.4727 59.0614C79.4727 59.0274 80.123 59 80.9249 59C81.7271 59 82.3771 59.0276 82.3771 59.0614C82.3771 59.0951 81.7271 59.1227 80.9249 59.1227C80.123 59.123 79.4727 59.0953 79.4727 59.0614Z" fill="#263238"/>
<path d="M73.6641 59.0614C73.6641 59.0274 74.3144 59 75.1163 59C75.9185 59 76.5685 59.0276 76.5685 59.0614C76.5685 59.0951 75.9185 59.1227 75.1163 59.1227C74.3141 59.123 73.6641 59.0953 73.6641 59.0614Z" fill="#263238"/>
<path d="M67.8555 59.0614C67.8555 59.0274 68.5058 59 69.3075 59C70.1097 59 70.7597 59.0276 70.7597 59.0614C70.7597 59.0951 70.1097 59.1227 69.3075 59.1227C68.5058 59.123 67.8555 59.0953 67.8555 59.0614Z" fill="#263238"/>
<path d="M62.0469 59.0614C62.0469 59.0274 62.6972 59 63.4989 59C64.3011 59 64.9511 59.0276 64.9511 59.0614C64.9511 59.0951 64.3011 59.1227 63.4989 59.1227C62.6972 59.123 62.0469 59.0953 62.0469 59.0614Z" fill="#263238"/>
<path d="M57.718 60.4754C57.6838 60.4754 57.6562 59.8413 57.6562 59.0594C57.7799 58.9364 57.6909 59.0254 57.7187 58.9978H57.7191H57.7203H57.7227H57.7272H57.7365H57.7547H57.7913L57.8637 58.998C57.9114 58.9983 57.9584 58.9987 58.0051 58.999C58.096 59.0002 58.1848 59.0013 58.2724 59.0025C58.4281 59.007 58.5785 59.0115 58.725 59.0157C58.9827 59.0268 59.142 59.0422 59.142 59.0591C59.142 59.0761 58.9827 59.0915 58.725 59.1026C58.5785 59.1068 58.4281 59.1113 58.2724 59.1158C58.1848 59.117 58.096 59.1181 58.0051 59.1193C57.9584 59.1196 57.9114 59.12 57.8637 59.1203L57.7913 59.1205H57.7547H57.7365H57.7272H57.7227H57.7203H57.7191H57.7187C57.746 59.0931 57.6565 59.1819 57.7799 59.0591C57.7799 59.8413 57.7521 60.4754 57.718 60.4754Z" fill="#263238"/>
<path d="M57.7176 65.7715C57.6836 65.7715 57.6562 65.1789 57.6562 64.4483C57.6562 63.7174 57.6839 63.125 57.7176 63.125C57.7516 63.125 57.779 63.7174 57.779 64.4483C57.7792 65.1789 57.7516 65.7715 57.7176 65.7715Z" fill="#263238"/>
<path d="M57.7176 71.0606C57.6836 71.0606 57.6562 70.468 57.6562 69.7373C57.6562 69.0064 57.6839 68.4141 57.7176 68.4141C57.7516 68.4141 57.779 69.0064 57.779 69.7373C57.7792 70.4682 57.7516 71.0606 57.7176 71.0606Z" fill="#263238"/>
<path d="M57.7176 76.3574C57.6836 76.3574 57.6562 75.7648 57.6562 75.0342C57.6562 74.3033 57.6839 73.7109 57.7176 73.7109C57.7516 73.7109 57.779 74.3033 57.779 75.0342C57.7792 75.7648 57.7516 76.3574 57.7176 76.3574Z" fill="#263238"/>
<path d="M57.7176 81.6465C57.6836 81.6465 57.6562 81.0539 57.6562 80.3233C57.6562 79.5924 57.6839 79 57.7176 79C57.7516 79 57.779 79.5924 57.779 80.3233C57.7792 81.0541 57.7516 81.6465 57.7176 81.6465Z" fill="#263238"/>
<path d="M57.7176 86.9434C57.6836 86.9434 57.6562 86.351 57.6562 85.6201C57.6562 84.8892 57.6839 84.2969 57.7176 84.2969C57.7516 84.2969 57.779 84.8892 57.779 85.6201C57.7792 86.3508 57.7516 86.9434 57.7176 86.9434Z" fill="#263238"/>
<path d="M57.7176 92.2324C57.6836 92.2324 57.6562 91.6399 57.6562 90.9092C57.6562 90.1783 57.6839 89.5859 57.7176 89.5859C57.7516 89.5859 57.779 90.1783 57.779 90.9092C57.7792 91.6401 57.7516 92.2324 57.7176 92.2324Z" fill="#263238"/>
<path d="M57.7176 97.5293C57.6836 97.5293 57.6562 96.9367 57.6562 96.2061C57.6562 95.4752 57.6839 94.8828 57.7176 94.8828C57.7516 94.8828 57.779 95.4752 57.779 96.2061C57.7792 96.9367 57.7516 97.5293 57.7176 97.5293Z" fill="#263238"/>
<path d="M59.142 101.588C59.142 101.622 58.5045 101.649 57.718 101.649C57.5943 101.527 57.6838 101.615 57.656 101.587V101.587V101.586V101.583V101.579V101.569V101.551V101.515L57.6563 101.443C57.6565 101.396 57.657 101.349 57.6572 101.302C57.6584 101.212 57.6596 101.124 57.6608 101.037C57.6653 100.882 57.6698 100.732 57.6741 100.587C57.6852 100.33 57.7006 100.172 57.7177 100.172C57.7348 100.172 57.7502 100.33 57.7614 100.587C57.7657 100.732 57.7702 100.882 57.7747 101.037C57.7759 101.124 57.7771 101.212 57.7783 101.302C57.7785 101.349 57.779 101.396 57.7792 101.443L57.7794 101.515V101.551V101.569V101.579V101.583V101.586V101.587V101.587C57.7519 101.56 57.8411 101.649 57.7177 101.527C58.5045 101.527 59.142 101.554 59.142 101.588Z" fill="#263238"/>
<path d="M64.8661 101.593C64.8661 101.627 64.2253 101.654 63.435 101.654C62.6445 101.654 62.0039 101.626 62.0039 101.593C62.0039 101.559 62.6445 101.531 63.435 101.531C64.2253 101.531 64.8661 101.559 64.8661 101.593Z" fill="#263238"/>
<path d="M70.591 101.593C70.591 101.627 69.9502 101.654 69.1599 101.654C68.3693 101.654 67.7285 101.626 67.7285 101.593C67.7285 101.559 68.3693 101.531 69.1599 101.531C69.9502 101.531 70.591 101.559 70.591 101.593Z" fill="#263238"/>
<path d="M76.3154 101.593C76.3154 101.627 75.6746 101.654 74.8842 101.654C74.0937 101.654 73.4531 101.626 73.4531 101.593C73.4531 101.559 74.0937 101.531 74.8842 101.531C75.6746 101.531 76.3154 101.559 76.3154 101.593Z" fill="#263238"/>
<path d="M82.04 101.593C82.04 101.627 81.3992 101.654 80.6089 101.654C79.8183 101.654 79.1777 101.626 79.1777 101.593C79.1777 101.559 79.8183 101.531 80.6089 101.531C81.3992 101.531 82.04 101.559 82.04 101.593Z" fill="#263238"/>
<path d="M87.7648 101.593C87.7648 101.627 87.124 101.654 86.3337 101.654C85.5431 101.654 84.9023 101.626 84.9023 101.593C84.9023 101.559 85.5429 101.531 86.3337 101.531C87.124 101.531 87.7648 101.559 87.7648 101.593Z" fill="#263238"/>
<path d="M93.4894 101.593C93.4894 101.627 92.8486 101.654 92.0583 101.654C91.2678 101.654 90.627 101.626 90.627 101.593C90.627 101.559 91.2675 101.531 92.0583 101.531C92.8486 101.531 93.4894 101.559 93.4894 101.593Z" fill="#263238"/>
<path d="M99.2158 101.593C99.2158 101.627 98.575 101.654 97.7846 101.654C96.9941 101.654 96.3535 101.626 96.3535 101.593C96.3535 101.559 96.9941 101.531 97.7846 101.531C98.575 101.531 99.2158 101.559 99.2158 101.593Z" fill="#263238"/>
<path d="M104.941 101.593C104.941 101.627 104.3 101.654 103.509 101.654C102.719 101.654 102.078 101.626 102.078 101.593C102.078 101.559 102.719 101.531 103.509 101.531C104.3 101.531 104.941 101.559 104.941 101.593Z" fill="#263238"/>
<path d="M110.665 101.593C110.665 101.627 110.024 101.654 109.234 101.654C108.444 101.654 107.803 101.626 107.803 101.593C107.803 101.559 108.443 101.531 109.234 101.531C110.024 101.531 110.665 101.559 110.665 101.593Z" fill="#263238"/>
<path d="M116.39 101.593C116.39 101.627 115.749 101.654 114.959 101.654C114.168 101.654 113.527 101.626 113.527 101.593C113.527 101.559 114.168 101.531 114.959 101.531C115.749 101.531 116.39 101.559 116.39 101.593Z" fill="#263238"/>
<path d="M120.676 101.593C120.676 101.627 120.357 101.654 119.964 101.654C119.571 101.654 119.252 101.626 119.252 101.593C119.252 101.559 119.571 101.531 119.964 101.531C120.357 101.531 120.676 101.559 120.676 101.593Z" fill="#263238"/>
<g opacity="0.3">
<path d="M77.3792 83.6016C77.3792 83.6016 77.3941 85.9618 76.6764 87.3891C75.9587 88.8162 75.7176 89.3652 74.2098 89.9141C72.702 90.463 53.5801 92.549 53.5801 92.549V86.1268L77.3792 83.6016Z" fill="black"/>
</g>
<g opacity="0.3">
<path d="M77.0362 74.7064C77.0362 74.7064 77.2546 72.2987 71.176 71.4041C64.2235 70.3808 53.5801 69.125 53.5801 69.125V73.6819L77.0362 74.7064Z" fill="black"/>
</g>
<path d="M54.2116 88.0718H73.982C75.8583 88.0718 77.3794 86.5593 77.3794 84.6937V75.894C77.3794 74.0281 75.8583 72.5156 73.982 72.5156H54.2116C52.3353 72.5156 50.8145 74.0281 50.8145 75.894V84.6937C50.8142 86.5595 52.3353 88.0718 54.2116 88.0718Z" fill="#E8505B"/>
<path d="M54.2115 88.0709C54.2115 88.0709 54.1429 88.0716 54.0086 88.0669C53.8742 88.0659 53.6742 88.0438 53.4181 87.9871C53.1606 87.9347 52.8523 87.8212 52.5153 87.6378C52.1806 87.4512 51.8232 87.1739 51.5147 86.7809C51.2109 86.3892 50.9398 85.8843 50.8397 85.2837C50.778 84.9857 50.7851 84.6654 50.7823 84.3411C50.7815 84.0148 50.7806 83.6759 50.7799 83.3249C50.7773 81.9203 50.7742 80.3214 50.7706 78.5542C50.7718 77.6699 50.7621 76.746 50.7723 75.7784C50.7979 74.8037 51.2776 73.7903 52.1355 73.1592C52.5577 72.8423 53.0609 72.6082 53.603 72.5185C53.8716 72.4687 54.1533 72.459 54.4253 72.4611C54.6997 72.4609 54.9759 72.4607 55.2541 72.4604C56.3674 72.4595 57.5133 72.4588 58.6883 72.4578C63.3889 72.4564 68.5562 72.4548 73.9802 72.4531C74.3253 72.46 74.6684 72.5072 74.9981 72.6046C75.3249 72.7094 75.6356 72.8574 75.9206 73.0441C76.2009 73.2378 76.4518 73.4691 76.6684 73.7278C76.882 73.9897 77.0505 74.2835 77.1827 74.5906C77.3114 74.9002 77.3842 75.228 77.4239 75.5572C77.4481 75.8909 77.4391 76.2128 77.4407 76.5366C77.4405 77.1835 77.4402 77.8249 77.4402 78.461C77.4398 79.7328 77.4393 80.9822 77.4388 82.2056C77.4386 82.8173 77.4381 83.4226 77.4379 84.0211C77.4327 84.3218 77.4488 84.6144 77.426 84.917C77.4253 85.0678 77.3895 85.2148 77.3702 85.3628C77.3337 85.5075 77.3045 85.6545 77.2523 85.7937C76.8752 86.9284 75.8822 87.782 74.7788 88.0296C74.643 88.0709 74.5009 88.0775 74.363 88.1028C74.2237 88.1143 74.0829 88.12 73.9448 88.1242C73.6704 88.124 73.3985 88.1238 73.1284 88.1235C72.5882 88.1231 72.0568 88.1223 71.5342 88.1219C69.4443 88.1193 67.4972 88.1167 65.7193 88.1143C62.1664 88.1061 59.2909 88.0994 57.2994 88.0947C56.3079 88.0898 55.537 88.0858 55.0104 88.0832C54.7512 88.0806 54.5525 88.0784 54.4151 88.077C54.2801 88.0751 54.2115 88.0709 54.2115 88.0709C54.2115 88.0709 54.2801 88.0666 54.4144 88.0645C54.5518 88.0631 54.7505 88.061 55.0096 88.0584C55.5365 88.0558 56.3071 88.0518 57.2987 88.0468C59.2899 88.0421 62.1657 88.0355 65.7186 88.0272C67.4965 88.0249 69.4433 88.0225 71.5335 88.0197C72.0561 88.0192 72.5875 88.0185 73.1277 88.018C73.6676 88.0048 74.2215 88.0624 74.7529 87.9241C75.8207 87.6829 76.7807 86.8545 77.1436 85.7571C77.3493 85.2127 77.3209 84.6199 77.3211 84.0209C77.3209 83.4224 77.3204 82.8171 77.3202 82.2054C77.3197 80.9819 77.3192 79.7325 77.3187 78.4607C77.3185 77.825 77.3185 77.1833 77.3183 76.5364C77.3166 76.2135 77.3249 75.8857 77.3016 75.5688C77.263 75.2514 77.1929 74.9354 77.0688 74.6368C76.9411 74.3409 76.7786 74.0575 76.5726 73.8047C76.3635 73.5552 76.1214 73.3322 75.8513 73.1453C75.5762 72.9655 75.277 72.8229 74.962 72.7217C74.6442 72.628 74.3136 72.5827 73.9804 72.5756C68.5566 72.574 63.3892 72.5723 58.6885 72.5709C57.5135 72.5699 56.3677 72.5692 55.2543 72.5683C54.9759 72.5681 54.6997 72.5678 54.4256 72.5676C54.1495 72.565 53.8847 72.574 53.6217 72.6216C53.0963 72.7073 52.6081 72.9336 52.1977 73.2402C51.3637 73.851 50.8957 74.8334 50.8679 75.7812C50.8554 76.7424 50.8622 77.6708 50.8582 78.554C50.8549 80.3211 50.8518 81.92 50.8489 83.3247C50.848 83.6756 50.8473 84.0145 50.8466 84.3409C50.8478 84.6678 50.839 84.98 50.8981 85.2734C50.9928 85.8643 51.2562 86.3627 51.5529 86.7514C51.8543 87.1411 52.2046 87.4181 52.5338 87.606C52.8653 87.7905 53.1696 87.9069 53.4243 87.9628C53.6775 88.023 53.8761 88.0489 54.0098 88.0541C54.1427 88.0633 54.2115 88.0709 54.2115 88.0709Z" fill="#263238"/>
<path d="M69.3769 86.5376C72.518 86.5376 75.0644 84.0055 75.0644 80.8821C75.0644 77.7586 72.518 75.2266 69.3769 75.2266C66.2358 75.2266 63.6895 77.7586 63.6895 80.8821C63.6895 84.0055 66.2358 86.5376 69.3769 86.5376Z" fill="#263238"/>
<path d="M70.8342 85.4992C70.82 85.4685 71.4197 85.3484 72.1904 84.7928C72.5737 84.5181 72.9852 84.1257 73.3391 83.6138C73.6932 83.1043 73.9768 82.4675 74.0947 81.7621C74.2025 81.0551 74.1313 80.3619 73.9535 79.7684C73.7767 79.1727 73.5078 78.6727 73.2289 78.2932C72.6695 77.5274 72.137 77.2283 72.16 77.2036C72.1623 77.2 72.1944 77.2182 72.2537 77.2564C72.3112 77.2968 72.4032 77.3475 72.5058 77.4337C72.7196 77.5946 73.007 77.8606 73.2992 78.2417C73.592 78.6214 73.8754 79.1279 74.0624 79.7358C74.2504 80.3416 74.3275 81.0534 74.2165 81.7815C74.095 82.5077 73.8 83.1602 73.4323 83.6782C73.0649 84.1986 72.6377 84.5927 72.2409 84.8634C71.8443 85.1355 71.4881 85.3 71.2346 85.3871C71.1103 85.4371 71.0068 85.4572 70.9396 85.4777C70.8715 85.4959 70.8354 85.5032 70.8342 85.4992Z" fill="#FAFAFA"/>
<path d="M158.401 44.6402C158.916 50.3734 154.649 55.4372 148.871 55.9514C143.092 56.4655 137.99 52.2347 137.474 46.5015C136.958 40.7686 141.225 35.7045 147.003 35.1908C152.782 34.6765 157.885 38.9073 158.401 44.6402Z" fill="#E8505B"/>
<g opacity="0.3">
<path d="M155.887 44.6151C155.839 44.6212 155.774 44.2762 155.591 43.6803C155.405 43.0884 155.085 42.2366 154.452 41.3318C154.136 40.8815 153.744 40.4199 153.267 39.985C152.786 39.5547 152.225 39.146 151.58 38.8156C151.258 38.6492 150.919 38.4977 150.56 38.3755C150.202 38.2513 149.829 38.1444 149.441 38.0743C149.055 38.0028 148.656 37.9511 148.25 37.9393C147.843 37.9268 147.43 37.9431 147.015 37.9901C146.601 38.0429 146.196 38.1251 145.804 38.2336C145.412 38.3419 145.038 38.4866 144.679 38.6476C144.319 38.808 143.983 39.0004 143.665 39.2057C143.346 39.4096 143.053 39.6378 142.78 39.8755C142.233 40.3496 141.786 40.8801 141.423 41.4121C141.064 41.9476 140.795 42.4889 140.596 43.0015C140.199 44.0303 140.094 44.933 140.056 45.5517C140.021 46.1736 140.041 46.5243 139.992 46.5295C139.957 46.5344 139.856 46.1925 139.817 45.5513C139.782 44.9141 139.822 43.9635 140.187 42.8578C140.37 42.3072 140.632 41.7212 140.996 41.1385C141.363 40.5594 141.826 39.9795 142.402 39.4585C142.689 39.1972 143 38.9468 143.34 38.7221C143.679 38.4958 144.039 38.2844 144.425 38.1074C144.81 37.9294 145.213 37.7706 145.636 37.6516C146.058 37.532 146.495 37.4425 146.942 37.3859C147.389 37.3347 147.835 37.3179 148.274 37.334C148.713 37.3493 149.142 37.4079 149.559 37.489C149.976 37.5693 150.377 37.6892 150.76 37.8286C151.144 37.966 151.506 38.1354 151.847 38.3207C152.532 38.6898 153.121 39.1429 153.617 39.618C154.11 40.0973 154.506 40.6042 154.816 41.0954C155.436 42.0823 155.704 42.9959 155.823 43.6229C155.939 44.2554 155.923 44.6113 155.887 44.6151Z" fill="black"/>
</g>
<g opacity="0.3">
<path d="M149.264 50.2198L149.409 51.5992L148.171 51.7269L148.03 50.385C146.797 50.4379 145.58 50.178 144.844 49.7188L145.367 48.1459C146.035 48.5376 146.961 48.7776 147.862 48.7717L147.646 46.715C146.237 46.5252 144.654 46.2284 144.469 44.4671C144.333 43.1618 145.169 41.9426 147.102 41.5187L146.959 40.1516L148.198 40.0234L148.338 41.366C149.275 41.3439 150.205 41.4963 150.931 41.8569L150.47 43.4358C149.801 43.1441 149.135 43.0013 148.508 42.9911L148.727 45.0849C150.135 45.2626 151.694 45.5624 151.876 47.2984C152.009 48.5791 151.184 49.7846 149.264 50.2198ZM147.457 44.9049L147.274 43.1563C146.633 43.3718 146.41 43.756 146.453 44.1626C146.498 44.5933 146.894 44.7892 147.457 44.9049ZM149.897 47.6526C149.852 47.2214 149.469 47.0248 148.917 46.8948L149.095 48.5942C149.7 48.3948 149.939 48.0465 149.897 47.6526Z" fill="black"/>
</g>
<path d="M139.966 46.3027C139.968 46.3025 139.973 46.3239 139.981 46.366C139.99 46.415 140.001 46.4762 140.014 46.5524C140.028 46.6374 140.045 46.7381 140.064 46.8557C140.084 46.9753 140.1 47.1145 140.146 47.2658C140.282 47.8789 140.57 48.758 141.165 49.715C141.454 50.1979 141.851 50.6746 142.31 51.1506C142.433 51.2615 142.557 51.3743 142.684 51.4888C142.749 51.545 142.81 51.6063 142.878 51.6597C142.948 51.7116 143.018 51.7637 143.089 51.8164C143.232 51.919 143.37 52.034 143.523 52.131C143.679 52.2249 143.836 52.3202 143.995 52.4165C144.648 52.7708 145.373 53.0844 146.168 53.255C146.96 53.4259 147.804 53.4877 148.663 53.4205C149.52 53.3308 150.339 53.1167 151.087 52.805C151.837 52.493 152.492 52.0531 153.07 51.586C153.208 51.4624 153.346 51.3401 153.481 51.2195C153.614 51.0963 153.728 50.9583 153.85 50.8313C153.91 50.7669 153.97 50.7027 154.029 50.639C154.086 50.5741 154.135 50.5028 154.188 50.4358C154.292 50.3001 154.394 50.1665 154.495 50.0353C154.858 49.484 155.161 48.9433 155.357 48.4161C155.766 47.3673 155.888 46.4507 155.909 45.8232C155.927 45.666 155.917 45.5263 155.915 45.405C155.912 45.286 155.91 45.1838 155.908 45.0979C155.907 45.0208 155.907 44.9585 155.906 44.9087C155.906 44.8659 155.908 44.844 155.91 44.8438C155.912 44.8435 155.915 44.8652 155.919 44.9077C155.923 44.9573 155.927 45.0193 155.933 45.0965C155.938 45.1826 155.944 45.2851 155.952 45.4043C155.958 45.526 155.971 45.6667 155.957 45.8248C155.951 46.4563 155.842 47.3831 155.439 48.4477C155.245 48.983 154.944 49.5326 154.579 50.0933C154.478 50.2271 154.376 50.3631 154.271 50.5011C154.218 50.5693 154.169 50.6418 154.111 50.7079C154.052 50.7728 153.992 50.8379 153.932 50.9038C153.809 51.0331 153.693 51.1737 153.559 51.2993C153.422 51.4223 153.284 51.5466 153.143 51.6729C152.56 52.1489 151.896 52.5973 151.135 52.9159C150.376 53.234 149.544 53.4521 148.675 53.5432C147.803 53.6116 146.945 53.5479 146.141 53.3726C145.335 53.1977 144.6 52.8772 143.939 52.5149C143.778 52.4165 143.619 52.3191 143.462 52.223C143.307 52.1239 143.168 52.0068 143.023 51.9018C142.952 51.848 142.881 51.7947 142.81 51.7418C142.741 51.6873 142.68 51.625 142.615 51.5676C142.487 51.4508 142.361 51.3356 142.237 51.2226C141.776 50.7374 141.379 50.2517 141.091 49.7606C140.499 48.7871 140.222 47.8957 140.099 47.2757C140.057 47.1228 140.044 46.9821 140.028 46.8611C140.013 46.7426 140.001 46.6409 139.99 46.555C139.981 46.4781 139.974 46.4162 139.969 46.3669C139.965 46.3247 139.964 46.3029 139.966 46.3027Z" fill="#263238"/>
<path d="M143.596 75.4446C142.135 78.4574 138.49 79.72 135.453 78.2648C132.416 76.8094 131.138 73.1873 132.598 70.1745C134.058 67.1617 137.704 65.8991 140.741 67.3545C143.778 68.8097 145.056 72.4318 143.596 75.4446Z" fill="#E8505B"/>
<g opacity="0.3">
<path d="M142.349 74.6867C142.323 74.6754 142.394 74.484 142.481 74.1326C142.566 73.7824 142.662 73.2627 142.617 72.6238C142.594 72.3055 142.537 71.9593 142.429 71.6008C142.318 71.2437 142.161 70.8737 141.938 70.5178C141.827 70.3396 141.703 70.1633 141.561 69.996C141.419 69.8282 141.265 69.6644 141.093 69.5145C140.921 69.3645 140.738 69.2205 140.539 69.0942C140.34 68.9675 140.129 68.8533 139.908 68.7539C139.685 68.6574 139.458 68.5783 139.23 68.5167C139.002 68.4547 138.772 68.4157 138.545 68.39C138.318 68.3636 138.092 68.3598 137.872 68.3683C137.652 68.3756 137.437 68.4023 137.23 68.4403C136.815 68.5148 136.433 68.647 136.092 68.8049C135.753 68.9656 135.456 69.1558 135.204 69.3529C134.698 69.7487 134.374 70.1676 134.17 70.4652C133.967 70.7653 133.871 70.9459 133.846 70.9343C133.826 70.9263 133.879 70.7259 134.051 70.3944C134.224 70.0661 134.529 69.6038 135.043 69.1603C135.299 68.9399 135.605 68.7251 135.961 68.5422C136.318 68.3622 136.723 68.2099 137.166 68.1207C137.388 68.0754 137.618 68.0426 137.855 68.0313C138.091 68.0185 138.334 68.02 138.58 68.0457C138.825 68.0709 139.074 68.1113 139.321 68.1769C139.567 68.2423 139.812 68.327 140.052 68.4311C140.291 68.5382 140.518 68.6619 140.732 68.7997C140.946 68.9373 141.143 69.094 141.327 69.2578C141.511 69.4213 141.675 69.6 141.824 69.7829C141.974 69.9651 142.104 70.1572 142.219 70.3505C142.45 70.7373 142.608 71.1378 142.713 71.522C142.815 71.9071 142.861 72.2772 142.868 72.6139C142.882 73.2901 142.742 73.8251 142.614 74.1732C142.482 74.5225 142.368 74.6955 142.349 74.6867Z" fill="black"/>
</g>
<g opacity="0.3">
<path d="M137.366 75.5183L137.025 76.2492L136.369 75.9461L136.701 75.2351C136.069 74.8959 135.54 74.406 135.311 73.9588L136.043 73.3291C136.258 73.7221 136.648 74.1162 137.1 74.38L137.608 73.2902C136.962 72.7781 136.261 72.1609 136.697 71.2278C137.02 70.5361 137.802 70.1757 138.894 70.537L139.232 69.8125L139.888 70.1155L139.556 70.8268C140.03 71.093 140.448 71.4447 140.702 71.8395L140 72.4909C139.753 72.1472 139.464 71.8787 139.154 71.688L138.636 72.7974C139.285 73.3032 139.973 73.9144 139.543 74.8341C139.227 75.5128 138.454 75.8699 137.366 75.5183ZM138.056 72.3313L138.488 71.4048C138.104 71.3224 137.878 71.4482 137.777 71.6635C137.671 71.8919 137.81 72.1069 138.056 72.3313ZM138.45 74.4249C138.557 74.1964 138.425 73.9847 138.188 73.7563L137.768 74.6569C138.13 74.7366 138.353 74.6337 138.45 74.4249Z" fill="black"/>
</g>
<path d="M133.901 70.8126C133.913 70.8177 133.829 71.0037 133.713 71.3497C133.6 71.6961 133.483 72.2191 133.496 72.8698C133.497 73.1952 133.553 73.5487 133.639 73.9202C133.746 74.2865 133.883 74.6735 134.101 75.0447C134.32 75.4127 134.587 75.7815 134.93 76.1001C135.273 76.418 135.673 76.6972 136.119 76.9169C136.571 77.1248 137.041 77.2598 137.505 77.3262C137.97 77.3927 138.426 77.3679 138.852 77.307C139.279 77.2429 139.669 77.1067 140.022 76.9594C140.368 76.7937 140.68 76.6153 140.936 76.4121C141.453 76.0135 141.79 75.5956 141.99 75.2911C142.189 74.9843 142.281 74.8021 142.293 74.808C142.296 74.8099 142.276 74.8562 142.233 74.9433C142.186 75.028 142.133 75.163 142.031 75.3169C141.841 75.6324 141.51 76.0654 140.989 76.4806C140.732 76.692 140.416 76.8787 140.065 77.0519C139.706 77.2065 139.308 77.3495 138.871 77.4184C138.435 77.4843 137.967 77.5119 137.489 77.4453C137.013 77.3793 136.53 77.2412 136.066 77.0276C135.608 76.8022 135.197 76.5148 134.847 76.1872C134.495 75.8589 134.223 75.479 134.002 75.1004C133.782 74.7184 133.644 74.3209 133.54 73.9452C133.456 73.5646 133.404 73.2028 133.408 72.8712C133.407 72.2076 133.539 71.6799 133.667 71.3344C133.723 71.1585 133.796 71.033 133.833 70.9435C133.874 70.8558 133.897 70.8107 133.901 70.8126Z" fill="#263238"/>
<path d="M42.8242 74.5707C43.6136 79.9733 39.839 84.9906 34.3939 85.7779C28.9483 86.5647 23.8938 82.8232 23.1044 77.4207C22.3148 72.0184 26.0891 67.0008 31.5347 66.214C36.9801 65.4267 42.0348 69.1685 42.8242 74.5707Z" fill="#E8505B"/>
<g opacity="0.3">
<path d="M40.4429 74.6726C40.3975 74.6808 40.3176 74.3575 40.113 73.8027C39.906 73.2516 39.5583 72.462 38.9116 71.6378C38.5888 71.2277 38.1937 70.8109 37.7185 70.4239C37.2405 70.0415 36.6878 69.6833 36.0596 69.4041C35.7463 69.2634 35.4164 69.1374 35.0704 69.0404C34.725 68.9415 34.3662 68.8597 33.9955 68.8134C33.6255 68.7657 33.2455 68.7376 32.8598 68.7476C32.4744 68.7568 32.0842 68.7936 31.6936 68.8599C31.3036 68.9314 30.9244 69.0303 30.5594 69.1535C30.1936 69.2764 29.8467 69.4329 29.5156 69.604C29.1836 69.7746 28.8748 69.9743 28.5848 70.1853C28.2933 70.3948 28.0273 70.6261 27.7819 70.8654C27.2887 71.3428 26.8933 71.8684 26.5776 72.3909C26.2658 72.9167 26.0389 73.4435 25.8777 73.9391C25.5561 74.9338 25.5035 75.7943 25.4999 76.3824C25.5001 76.9731 25.5372 77.3042 25.4914 77.3118C25.4579 77.3184 25.3447 76.9998 25.2737 76.3944C25.207 75.7929 25.1954 74.8906 25.4828 73.8246C25.6271 73.2936 25.8445 72.7253 26.1583 72.1545C26.4761 71.5869 26.8836 71.0136 27.4021 70.4902C27.6601 70.228 27.9416 69.9745 28.2515 69.7442C28.5601 69.5124 28.8902 69.2934 29.2462 69.1056C29.6015 68.917 29.9751 68.7457 30.369 68.6109C30.7625 68.4757 31.1717 68.3683 31.592 68.2914C32.0133 68.2196 32.4345 68.1807 32.8506 68.1731C33.2671 68.1649 33.6772 68.1981 34.0759 68.2534C34.4751 68.3076 34.861 68.4004 35.2308 68.5127C35.6015 68.6229 35.954 68.7645 36.2867 68.9222C36.9546 69.2361 37.5358 69.6347 38.0309 70.0588C38.5226 70.4871 38.9242 70.9466 39.2434 71.3955C39.8825 72.2979 40.1842 73.1492 40.3301 73.7368C40.4728 74.3292 40.4766 74.6669 40.4429 74.6726Z" fill="black"/>
</g>
<g opacity="0.3">
<path d="M34.4663 80.3275L34.6756 81.6262L33.5096 81.8115L33.3062 80.5479C32.1407 80.6619 30.9751 80.4793 30.2536 80.0825L30.6668 78.5658C31.319 78.9021 32.2088 79.0814 33.0618 79.0288L32.7497 77.0922C31.4049 76.9855 29.8903 76.7868 29.6233 75.1284C29.4256 73.8993 30.1533 72.7014 31.962 72.1997L31.7548 70.9123L32.9208 70.7266L33.1242 71.9906C34.0099 71.921 34.8983 72.017 35.6048 72.3207L35.2516 73.8399C34.6028 73.5984 33.9646 73.4977 33.3703 73.5208L33.6879 75.4921C35.0305 75.5872 36.5223 75.7902 36.7855 77.4247C36.9797 78.6311 36.2615 79.8159 34.4663 80.3275ZM32.4753 75.388L32.21 73.7417C31.6145 73.9791 31.4239 74.3546 31.4854 74.7371C31.5509 75.1428 31.9361 75.3078 32.4753 75.388ZM34.931 77.8634C34.8655 77.4573 34.4919 77.2911 33.9625 77.1967L34.22 78.7971C34.7827 78.5766 34.9906 78.2344 34.931 77.8634Z" fill="black"/>
</g>
<path d="M25.4539 77.0994C25.4561 77.0991 25.4622 77.1189 25.4722 77.1584C25.4831 77.2048 25.4969 77.2622 25.5135 77.3332C25.5313 77.4132 25.5524 77.5079 25.5769 77.6176C25.6018 77.7299 25.6248 77.8609 25.6763 78.0018C25.8377 78.5753 26.1572 79.3926 26.7704 80.2674C27.0702 80.7094 27.4708 81.1399 27.93 81.5668C28.0523 81.6655 28.1764 81.7658 28.3026 81.8675C28.3665 81.9173 28.4275 81.9723 28.4951 82.0192C28.564 82.0648 28.6333 82.1106 28.703 82.1566C28.844 82.2463 28.9807 82.348 29.1307 82.432C29.2826 82.513 29.4364 82.5948 29.5923 82.6779C30.2291 82.9793 30.9316 83.2387 31.693 83.3588C32.4522 83.4791 33.2546 83.494 34.0637 83.3859C34.8701 83.2564 35.6339 83.0114 36.3257 82.6774C37.0197 82.3433 37.6168 81.8927 38.1387 81.421C38.2638 81.2966 38.3872 81.1739 38.5089 81.0528C38.6281 80.9294 38.7294 80.7927 38.8384 80.6663C38.8918 80.6021 38.9447 80.5383 38.9974 80.4751C39.0484 80.4107 39.0909 80.3406 39.1374 80.2745C39.2285 80.1407 39.3182 80.009 39.4065 79.8794C39.7219 79.3388 39.9802 78.8113 40.1382 78.3018C40.4705 77.2877 40.5381 76.4135 40.5258 75.8183C40.5343 75.6687 40.518 75.5368 40.5092 75.4221C40.5006 75.3098 40.4933 75.2132 40.4869 75.1316C40.4824 75.0589 40.4786 74.9999 40.4757 74.9525C40.4738 74.9119 40.4741 74.8911 40.476 74.8906C40.4781 74.8904 40.4821 74.9107 40.4881 74.9506C40.4942 74.9978 40.5021 75.0563 40.5115 75.1288C40.521 75.2104 40.5324 75.3069 40.5457 75.4193C40.5583 75.5342 40.5785 75.6666 40.5737 75.8172C40.6008 76.4157 40.5467 77.2992 40.2211 78.3287C40.0663 78.8457 39.8098 79.3822 39.4939 79.9325C39.4053 80.0645 39.3152 80.1987 39.2238 80.3349C39.177 80.4022 39.1341 80.4734 39.0828 80.5393C39.0299 80.6037 38.9765 80.6688 38.9228 80.7342C38.8132 80.8633 38.7111 81.0023 38.5908 81.1283C38.4679 81.2518 38.343 81.3771 38.2168 81.5038C37.6894 81.9853 37.084 82.4448 36.3796 82.7858C35.6773 83.1268 34.901 83.3767 34.0815 83.5079C33.2594 83.6179 32.4436 83.6021 31.6723 83.478C30.8991 83.3541 30.1859 83.0886 29.5411 82.7796C29.3832 82.6947 29.2275 82.6107 29.0737 82.5281C28.9219 82.4422 28.7837 82.3383 28.6413 82.2465C28.5708 82.1993 28.5008 82.1526 28.4315 82.1059C28.3632 82.0577 28.3017 82.0018 28.2371 81.9508C28.1099 81.8467 27.9846 81.7443 27.8614 81.6435C27.3986 81.2079 26.9971 80.7682 26.6985 80.3179C26.0874 79.4263 25.7781 78.5961 25.6298 78.0153C25.5814 77.8725 25.5619 77.7399 25.5408 77.6263C25.5209 77.5152 25.5035 77.4194 25.4891 77.3384C25.4772 77.2664 25.4675 77.2081 25.4596 77.1612C25.4539 77.1204 25.4518 77.0998 25.4539 77.0994Z" fill="#263238"/>
<path d="M168.143 105.78C168.143 105.814 132.707 105.841 89.0033 105.841C45.2848 105.841 9.85547 105.814 9.85547 105.78C9.85547 105.746 45.2846 105.719 89.0033 105.719C132.707 105.719 168.143 105.746 168.143 105.78Z" fill="#263238"/>
<path d="M131.248 61.4349C131.248 61.4349 131.229 59.8641 131.163 59.8516L127.917 60.5695C127.883 60.7741 127.473 63.3505 127.543 63.6011L131.195 64.6084C131.195 64.6084 131.248 61.526 131.248 61.4349Z" fill="#FFBE9D"/>
<path d="M131.25 64.3731C131.256 64.3698 131.261 64.3445 131.266 64.302C131.303 63.9504 131.281 62.4155 131.092 62.3499C130.881 62.2765 130.354 62.3964 130.317 62.5986C130.281 62.8009 130.405 64.5284 130.405 64.5284C130.405 64.5284 130.442 64.8003 130.902 64.8663C131.186 64.9074 131.25 64.3731 131.25 64.3731Z" fill="#FFBE9D"/>
<path d="M130.324 64.9275C130.33 64.9242 130.336 64.8992 130.34 64.8565C130.378 64.5049 130.355 62.9702 130.166 62.9045C129.955 62.8311 129.428 62.951 129.391 63.1533C129.355 63.3555 129.479 65.0831 129.479 65.0831C129.479 65.0831 129.516 65.3549 129.976 65.4212C130.26 65.4618 130.324 64.9275 130.324 64.9275Z" fill="#FFBE9D"/>
<path d="M129.418 65.201C129.424 65.1977 129.429 65.1724 129.434 65.1299C129.471 64.7783 129.449 63.2436 129.26 63.178C129.049 63.1046 128.522 63.2245 128.485 63.4267C128.449 63.629 128.573 65.3565 128.573 65.3565C128.573 65.3565 128.61 65.6286 129.07 65.6944C129.354 65.7353 129.418 65.201 129.418 65.201Z" fill="#FFBE9D"/>
<path d="M128.517 65.4589C128.523 65.4556 128.529 65.4306 128.533 65.3878C128.571 65.0362 128.548 63.5013 128.36 63.4359C128.148 63.3623 127.621 63.4824 127.585 63.6846C127.548 63.8869 127.672 65.6144 127.672 65.6144C127.672 65.6144 127.709 65.8865 128.169 65.9524C128.454 65.9932 128.517 65.4589 128.517 65.4589Z" fill="#FFBE9D"/>
<path d="M130.311 63.0469C130.337 63.049 130.369 63.3837 130.382 63.7938C130.396 64.2042 130.385 64.5351 130.359 64.533C130.332 64.5309 130.3 64.1964 130.287 63.786C130.274 63.3759 130.285 63.0448 130.311 63.0469Z" fill="#EB996E"/>
<path d="M129.401 63.0391C129.427 63.0381 129.466 63.5137 129.486 64.1011C129.507 64.6887 129.502 65.1657 129.476 65.1666C129.449 65.1676 129.411 64.692 129.39 64.1044C129.369 63.517 129.374 63.04 129.401 63.0391Z" fill="#EB996E"/>
<g opacity="0.78">
<path d="M128.475 63.1172C128.501 63.1162 128.54 63.5918 128.561 64.1794C128.581 64.7671 128.577 65.244 128.55 65.245C128.524 65.2459 128.485 64.7704 128.464 64.1827C128.443 63.5953 128.448 63.1181 128.475 63.1172Z" fill="#EB996E"/>
</g>
<path d="M127.895 60.6562C127.895 60.6562 126.61 63.5586 126.798 63.7389C126.986 63.9192 127.589 64.1958 127.589 64.1958L127.895 60.6562Z" fill="#FFBE9D"/>
<path d="M120.792 21.7328L119.851 32.5874L114.384 32.1531C114.35 31.5183 114.395 29.0627 114.395 29.0627C114.395 29.0627 112.121 28.7111 112.093 26.4495C112.079 25.3512 112.237 23.0813 112.403 21.0366C112.587 18.7682 114.559 17.0619 116.844 17.1948C119.21 17.3321 120.996 19.3844 120.792 21.7328Z" fill="#FFBE9D"/>
<path d="M114.392 29.0331C114.392 29.0331 115.829 29.1495 117.357 28.1953C117.357 28.1953 116.656 29.823 114.387 29.6191L114.392 29.0331Z" fill="#EB996E"/>
<path d="M113.01 22.6201C113.004 22.7907 113.144 22.9363 113.323 22.946C113.502 22.9554 113.652 22.8254 113.658 22.6548C113.664 22.4844 113.524 22.3383 113.345 22.3286C113.166 22.3192 113.016 22.4497 113.01 22.6201Z" fill="#263238"/>
<path d="M112.89 22.1755C112.93 22.2176 113.176 22.0365 113.526 22.0375C113.875 22.0335 114.131 22.2121 114.169 22.1697C114.188 22.1508 114.147 22.0748 114.035 21.9938C113.925 21.9134 113.738 21.835 113.52 21.8359C113.302 21.8371 113.119 21.9169 113.014 21.9983C112.906 22.0807 112.87 22.1567 112.89 22.1755Z" fill="#263238"/>
<path d="M116.451 22.6201C116.445 22.7905 116.585 22.9363 116.765 22.946C116.943 22.9557 117.093 22.8254 117.1 22.6548C117.106 22.4841 116.965 22.3383 116.787 22.3286C116.607 22.3192 116.457 22.4497 116.451 22.6201Z" fill="#263238"/>
<path d="M116.325 22.2378C116.366 22.2798 116.612 22.0988 116.961 22.0998C117.311 22.0957 117.567 22.2744 117.605 22.2319C117.623 22.213 117.583 22.137 117.471 22.0563C117.361 21.9759 117.173 21.8975 116.956 21.8984C116.738 21.8996 116.555 21.9794 116.45 22.0608C116.342 22.1429 116.306 22.2189 116.325 22.2378Z" fill="#263238"/>
<path d="M115.057 24.8178C115.058 24.798 114.841 24.7607 114.489 24.7158C114.4 24.7066 114.315 24.6889 114.3 24.6285C114.279 24.5643 114.317 24.4687 114.36 24.3654C114.444 24.1506 114.532 23.9255 114.624 23.6897C114.99 22.7275 115.256 21.9365 115.216 21.9221C115.177 21.9077 114.849 22.6759 114.482 23.638C114.394 23.8752 114.309 24.1015 114.229 24.3179C114.195 24.4187 114.137 24.5332 114.183 24.6663C114.207 24.7326 114.272 24.7807 114.329 24.7961C114.387 24.8135 114.437 24.8145 114.481 24.8171C114.836 24.836 115.055 24.8376 115.057 24.8178Z" fill="#263238"/>
<path d="M116.085 25.0547C116.028 25.0514 116.027 25.4285 115.702 25.6964C115.378 25.965 114.974 25.9227 114.971 25.9754C114.966 25.999 115.061 26.0485 115.232 26.0532C115.399 26.0589 115.644 26.0056 115.842 25.8418C116.041 25.6775 116.126 25.4585 116.139 25.3037C116.153 25.1461 116.111 25.0526 116.085 25.0547Z" fill="#263238"/>
<path d="M116.234 20.8776C116.269 20.972 116.618 20.9274 117.028 20.9765C117.439 21.0175 117.769 21.1367 117.824 21.052C117.848 21.0114 117.79 20.9224 117.657 20.8311C117.524 20.7397 117.313 20.6529 117.067 20.6258C116.82 20.5991 116.595 20.6378 116.446 20.6982C116.295 20.7584 116.219 20.8327 116.234 20.8776Z" fill="#263238"/>
<path d="M113.019 21.1723C113.08 21.2511 113.321 21.1693 113.611 21.1655C113.9 21.1516 114.145 21.2183 114.202 21.136C114.227 21.0959 114.188 21.0168 114.081 20.9422C113.975 20.8679 113.799 20.807 113.6 20.8129C113.401 20.8193 113.228 20.8908 113.128 20.9715C113.025 21.0527 112.992 21.1339 113.019 21.1723Z" fill="#263238"/>
<path d="M121.28 20.3304C121.15 21.4297 120.849 22.819 120.762 23.9424C120.754 24.0457 120.744 24.1552 120.681 24.2381C120.519 24.4519 120.134 24.9135 119.937 24.7311C119.458 24.2872 119.27 23.0446 119.175 22.4003C119.08 21.7563 119.096 21.1 119.007 20.455C119.005 20.4406 119.003 20.4255 119 20.4094C118.937 19.9568 118.699 19.5471 118.339 19.263C118.255 19.2065 118.167 19.1553 118.072 19.1221C117.404 18.8879 116.29 19.3208 115.624 19.562C115.28 19.6866 114.948 19.8402 114.615 19.9905C113.851 20.3349 112.946 20.2834 112.267 19.7947C111.862 19.5034 111.826 18.5807 112.004 17.9975C112.483 16.422 114.476 15.8799 117.031 16.4817C119.568 17.079 121.54 18.0707 121.28 20.3304Z" fill="#263238"/>
<path d="M120.024 22.751C120.063 22.7342 121.587 22.2913 121.537 23.8375C121.488 25.3838 119.937 25.0152 119.936 24.9708C119.934 24.9262 120.024 22.751 120.024 22.751Z" fill="#FFBE9D"/>
<path d="M120.429 24.4015C120.436 24.3968 120.456 24.4211 120.501 24.4435C120.545 24.4653 120.621 24.4818 120.703 24.4542C120.869 24.3994 121.016 24.1445 121.033 23.8661C121.041 23.7254 121.016 23.5904 120.969 23.4781C120.925 23.3634 120.854 23.282 120.772 23.2647C120.69 23.2432 120.63 23.2904 120.61 23.3334C120.588 23.3761 120.596 23.407 120.588 23.4096C120.584 23.4134 120.556 23.3827 120.57 23.3192C120.577 23.2888 120.597 23.2529 120.634 23.2244C120.673 23.1953 120.728 23.1819 120.786 23.1897C120.905 23.2017 121.01 23.3148 121.061 23.4384C121.119 23.5628 121.151 23.7145 121.141 23.8724C121.121 24.1837 120.951 24.4702 120.724 24.5276C120.614 24.5526 120.524 24.5167 120.478 24.4787C120.431 24.4391 120.424 24.4041 120.429 24.4015Z" fill="#EB996E"/>
<path d="M121.255 20.4339C121.274 20.4587 120.797 20.7206 120.144 20.7286C119.49 20.7437 119.005 20.4992 119.022 20.474C119.034 20.4381 119.518 20.6213 120.141 20.6059C120.765 20.5991 121.242 20.3985 121.255 20.4339Z" fill="#455A64"/>
<path d="M121.202 20.8792C121.221 20.9035 120.766 21.1655 120.137 21.174C119.507 21.1888 119.043 20.9441 119.061 20.9191C119.074 20.8832 119.536 21.0663 120.135 21.051C120.732 21.0442 121.188 20.8438 121.202 20.8792Z" fill="#455A64"/>
<path d="M110.38 97.902L111.39 102.528C111.39 102.528 107 105.103 107.103 105.976L116.194 104.35L114.918 97.0781L110.38 97.902Z" fill="#263238"/>
<path d="M116.195 104.353L116.037 103.625L107.38 105.456C107.38 105.456 107.007 105.703 107.104 105.978L116.195 104.353Z" fill="#455A64"/>
<path d="M120.72 98.4141L120.87 103.146C120.87 103.146 116.083 104.886 116.025 105.764L125.262 105.804L125.332 98.4216L120.72 98.4141Z" fill="#263238"/>
<g opacity="0.6">
<path d="M125.263 105.807L125.241 105.062L116.394 105.302C116.394 105.302 115.982 105.478 116.027 105.766L125.263 105.807Z" fill="#455A64"/>
</g>
<path d="M109.883 101.872C109.883 101.872 105.148 78.7762 105.145 78.3139L113.602 73.8672L116.878 100.972L109.883 101.872Z" fill="#263238"/>
<path d="M120.535 102.641L113.994 62.6106V53.9766L122.929 54.8011C123.042 55.1374 125.967 102.694 125.967 102.694L125.045 102.641H120.535Z" fill="#263238"/>
<path d="M108.852 53.3672L105.145 78.3103L113.434 76.3111L116.813 54.1781L108.852 53.3672Z" fill="#263238"/>
<path d="M116.521 55.4844C116.521 55.4844 116.523 55.5261 116.531 55.6069C116.54 55.6918 116.552 55.8105 116.569 55.9646C116.605 56.2835 116.658 56.7458 116.726 57.3393C116.868 58.5326 117.081 60.2582 117.36 62.3886C117.913 66.6498 118.753 72.5264 119.655 79.0195C120.104 82.2675 120.517 85.3632 120.869 88.1822C120.96 88.8871 121.032 89.5753 121.133 90.2422C121.235 90.9073 121.335 91.5527 121.431 92.1772C121.622 93.4256 121.799 94.5889 121.961 95.6511C122.282 97.7753 122.536 99.4953 122.702 100.685C122.785 101.28 122.846 101.742 122.882 102.056C122.901 102.213 122.913 102.333 122.918 102.414C122.92 102.454 122.922 102.485 122.919 102.504C122.917 102.53 122.905 102.502 122.905 102.508C122.905 102.508 122.906 102.51 122.908 102.515C122.911 102.524 122.926 102.517 122.925 102.505C122.929 102.485 122.93 102.454 122.93 102.413C122.928 102.332 122.92 102.211 122.905 102.054C122.876 101.739 122.822 101.275 122.746 100.679C122.593 99.4875 122.351 97.7657 122.041 95.6395C121.883 94.5766 121.71 93.4126 121.525 92.1633C121.43 91.5386 121.333 90.8926 121.232 90.2273C121.134 89.5632 121.063 88.8732 120.974 88.1692C120.627 85.3495 120.217 82.2524 119.768 79.0041C118.866 72.5104 118.014 66.6363 117.44 62.3782C117.158 60.2518 116.929 58.5295 116.771 57.3341C116.694 56.7418 116.633 56.2804 116.592 55.962C116.571 55.8084 116.554 55.6902 116.543 55.6054C116.531 55.5252 116.521 55.4844 116.521 55.4844Z" fill="#455A64"/>
<path d="M111.535 101.655C111.535 101.655 111.531 101.614 111.519 101.536C111.506 101.454 111.487 101.339 111.463 101.19C111.41 100.882 111.333 100.435 111.235 99.8617C111.03 98.7044 110.737 97.0373 110.374 94.9791C109.635 90.8543 108.617 85.1632 107.492 78.8773C107.409 78.49 107.381 78.0978 107.422 77.7108C107.471 77.3251 107.536 76.9348 107.593 76.5513C107.713 75.7829 107.831 75.0258 107.947 74.2817C108.182 72.7944 108.415 71.3605 108.644 69.9959C109.1 67.2663 109.54 64.8134 109.934 62.7578C110.328 60.7025 110.674 59.0443 110.937 57.904C111.062 57.3322 111.174 56.8918 111.244 56.5916C111.278 56.4448 111.305 56.3313 111.324 56.2501C111.341 56.1729 111.347 56.1328 111.347 56.1328C111.347 56.1328 111.333 56.171 111.312 56.2473C111.291 56.3277 111.261 56.4406 111.222 56.5862C111.145 56.8845 111.025 57.3234 110.894 57.8941C110.618 59.0321 110.26 60.6886 109.855 62.7427C109.451 64.7971 109.002 67.2494 108.54 69.9787C108.308 71.3432 108.073 72.7769 107.836 74.2645C107.72 75.0086 107.601 75.7659 107.481 76.5343C107.423 76.9202 107.359 77.303 107.308 77.6992C107.266 78.0971 107.296 78.5058 107.38 78.8997C108.517 85.1823 109.547 90.8706 110.294 94.9935C110.672 97.0488 110.978 98.7136 111.19 99.8695C111.298 100.441 111.382 100.887 111.44 101.194C111.469 101.342 111.491 101.457 111.507 101.538C111.524 101.616 111.535 101.655 111.535 101.655Z" fill="#455A64"/>
<path d="M113.994 62.3281C113.963 62.3331 114.349 64.9192 114.857 68.1038C115.365 71.2895 115.801 73.8671 115.832 73.8622C115.863 73.8572 115.477 71.2716 114.969 68.0861C114.462 64.9015 114.025 62.3232 113.994 62.3281Z" fill="#455A64"/>
<path d="M120.455 102.571C120.454 102.578 120.531 102.591 120.669 102.608C120.808 102.624 121.009 102.643 121.257 102.662C121.754 102.701 122.442 102.738 123.202 102.75C123.963 102.763 124.652 102.749 125.15 102.726C125.399 102.715 125.6 102.703 125.74 102.691C125.879 102.679 125.955 102.669 125.955 102.661C125.954 102.645 125.646 102.645 125.148 102.646C124.651 102.648 123.964 102.649 123.204 102.637C122.446 102.624 121.759 102.601 121.262 102.582C120.764 102.565 120.456 102.554 120.455 102.571Z" fill="#455A64"/>
<path d="M109.883 101.865C109.884 101.873 109.983 101.868 110.161 101.851C110.361 101.83 110.613 101.804 110.912 101.772C111.547 101.7 112.421 101.593 113.387 101.468C114.353 101.344 115.226 101.225 115.858 101.133C116.156 101.088 116.406 101.05 116.605 101.02C116.781 100.991 116.878 100.972 116.877 100.965C116.877 100.956 116.777 100.961 116.6 100.977C116.422 100.992 116.165 101.019 115.848 101.054C115.213 101.125 114.338 101.231 113.372 101.356C112.407 101.481 111.533 101.601 110.902 101.693C110.604 101.738 110.354 101.777 110.155 101.808C109.979 101.837 109.882 101.858 109.883 101.865Z" fill="#455A64"/>
<path d="M97.4343 38.6208L102.767 42.6536C102.767 42.6536 107.729 34.239 108.168 33.7158C108.606 33.1926 109.721 32.6328 109.721 32.6328L109.105 43.4216C109.105 43.4216 106.421 50.2323 102.738 49.8625C99.9176 49.5793 95.043 42.1804 95.043 42.1804L97.4343 38.6208Z" fill="#455A64"/>
<g opacity="0.2">
<path d="M102.668 42.5234C101.927 43.6529 101.724 45.1159 102.129 46.403C102.17 46.5345 102.226 46.6742 102.345 46.7448C102.523 46.8505 102.767 46.7419 102.879 46.5678C102.991 46.3936 103.005 46.1772 103.017 45.9709C103.12 46.1623 103.23 46.3613 103.41 46.4838C103.591 46.6065 103.864 46.6239 104.011 46.4632C104.188 46.269 104.09 45.9624 103.984 45.7227C103.53 44.6989 103.075 43.6754 102.621 42.6516" fill="black"/>
</g>
<path d="M98.7761 39.8285C98.8098 39.8498 98.263 40.7607 97.5553 41.8626C96.8473 42.965 96.2461 43.841 96.2124 43.8195C96.1787 43.7983 96.7253 42.8875 97.4335 41.7852C98.1412 40.6833 98.7424 39.807 98.7761 39.8285Z" fill="#263238"/>
<path d="M97.4178 39.6849C97.4033 39.6727 97.4721 39.6026 97.5941 39.6479C97.6492 39.6703 97.7161 39.7208 97.7365 39.8138C97.7586 39.9091 97.6957 40.0149 97.6077 40.0581C97.5218 40.1057 97.3988 40.0972 97.3321 40.0253C97.2664 39.9559 97.2626 39.8723 97.2754 39.8145C97.3072 39.6887 97.4043 39.6724 97.4062 39.6911C97.4164 39.7092 97.372 39.7496 97.377 39.8265C97.3793 39.9073 97.4446 39.9816 97.5405 39.9309C97.6369 39.8811 97.6124 39.7857 97.5467 39.7378C97.4857 39.6901 97.4271 39.7036 97.4178 39.6849Z" fill="#263238"/>
<path d="M102.774 45.2066C102.74 45.2189 102.541 44.6593 102.532 43.9351C102.518 43.2105 102.7 42.6451 102.735 42.6564C102.777 42.6656 102.663 43.2301 102.677 43.9327C102.685 44.6353 102.816 45.196 102.774 45.2066Z" fill="#263238"/>
<path d="M103.807 45.1774C103.774 45.1975 103.425 44.6847 103.123 43.9852C102.819 43.2864 102.684 42.6815 102.721 42.672C102.761 42.6605 102.956 43.2396 103.256 43.9283C103.553 44.6176 103.843 45.1562 103.807 45.1774Z" fill="#263238"/>
<path d="M120.878 31.6087L120.072 30.0234H114.241L113.324 31.8234L109.721 32.6338L108.169 55.7366C108.159 56.0295 108.23 56.3193 108.375 56.5744L122.541 57.1155L123.118 57.3499C123.626 57.0386 123.309 55.7512 123.315 55.1466L123.497 43.7046L126.299 34.5624L120.878 31.6087Z" fill="#455A64"/>
<g opacity="0.2">
<path d="M114.834 32.4088C115.177 32.0674 115.521 31.7259 115.864 31.3844C116.25 32.31 116.637 33.2358 117.022 34.1614C118.354 33.3826 119.624 32.4988 120.816 31.521C119.508 31.9385 118.2 32.3557 116.892 32.7732C116.56 31.8984 116.229 31.0233 115.897 30.1484C115.665 30.9423 115.333 31.7075 114.911 32.4204" fill="black"/>
</g>
<path d="M131.271 60.5775L127.453 60.7741L127.445 49.878L123.496 43.7047L126.299 34.5625C126.877 34.7886 131.227 45.6507 132.334 48.5998C132.494 49.0258 132.564 49.4779 132.54 49.932L131.271 60.5775Z" fill="#455A64"/>
<path d="M109.722 37.4063C109.762 37.41 109.572 39.6445 109.299 42.396C109.025 45.1485 108.772 47.3758 108.732 47.3721C108.692 47.3683 108.881 45.1343 109.155 42.3818C109.428 39.6303 109.682 37.4022 109.722 37.4063Z" fill="#263238"/>
<path d="M115.895 30.1565C115.931 30.1716 115.621 31.0032 115.2 32.0135C115.174 32.0766 115.148 32.1389 115.122 32.2005C115.095 32.263 115.066 32.335 114.995 32.3928C114.922 32.4572 114.802 32.4454 114.742 32.4091C114.675 32.3751 114.631 32.3399 114.58 32.3078C114.395 32.1835 114.22 32.0657 114.055 31.9548C113.759 31.7502 113.581 31.6154 113.592 31.5987C113.603 31.5819 113.8 31.6865 114.111 31.8694C114.281 31.9722 114.461 32.0813 114.651 32.1964C114.755 32.2606 114.86 32.3369 114.907 32.2821C114.97 32.2302 115.011 32.0787 115.067 31.9583C115.487 30.948 115.858 30.1411 115.895 30.1565Z" fill="#263238"/>
<path d="M120.532 31.5724C120.539 31.591 120.198 31.726 119.642 31.929C119.086 32.1319 118.315 32.4029 117.46 32.6939C117.3 32.7479 117.143 32.801 116.993 32.852L116.929 32.8735L116.903 32.8121C116.602 32.0883 116.343 31.4473 116.162 30.9857C115.982 30.5241 115.881 30.2416 115.898 30.2345C115.915 30.2277 116.046 30.4974 116.25 30.9493C116.453 31.4013 116.729 32.0354 117.035 32.7573L116.946 32.7175C117.096 32.6662 117.253 32.6124 117.413 32.5579C118.268 32.2669 119.044 32.0113 119.609 31.8329C120.173 31.6545 120.526 31.5535 120.532 31.5724Z" fill="#263238"/>
<path d="M125.7 34.8877C125.711 34.9299 124.89 35.1511 123.938 35.5749C122.983 35.994 122.269 36.4521 122.245 36.4158C122.234 36.4004 122.4 36.2657 122.69 36.0788C122.98 35.8919 123.397 35.6573 123.879 35.4437C124.362 35.2306 124.816 35.0798 125.15 34.991C125.484 34.9018 125.695 34.8695 125.7 34.8877Z" fill="#263238"/>
<path d="M115.895 30.1562C115.898 30.1562 115.9 30.1796 115.903 30.2252C115.906 30.2794 115.909 30.346 115.913 30.4279C115.918 30.6063 115.928 30.8694 115.932 31.2083C115.939 31.8861 115.935 32.8674 115.888 34.079C115.8 36.5025 115.496 39.8417 115.01 43.5077C114.773 45.3424 114.513 47.0848 114.337 48.6754C114.16 50.2658 114.083 51.7059 114.106 52.9149C114.123 54.1242 114.234 55.0991 114.333 55.7679C114.374 56.104 114.428 56.3612 114.454 56.5377C114.467 56.6189 114.477 56.6848 114.485 56.7383C114.491 56.7837 114.493 56.8073 114.491 56.8077C114.488 56.8082 114.481 56.7858 114.471 56.7412C114.459 56.6883 114.444 56.6232 114.426 56.5432C114.391 56.3683 114.327 56.112 114.277 55.7764C114.161 55.1085 114.034 54.1313 114.004 52.917C113.967 51.7033 114.034 50.2561 114.205 48.6612C114.373 47.0659 114.63 45.3226 114.866 43.4893C115.352 39.8254 115.672 36.4936 115.785 34.0746C115.846 32.8653 115.866 31.8857 115.876 31.2083C115.879 30.8789 115.881 30.6183 115.883 30.4284C115.885 30.3462 115.887 30.2797 115.889 30.2254C115.891 30.1796 115.893 30.1562 115.895 30.1562Z" fill="#263238"/>
<path d="M131.478 58.9079C131.476 58.9476 130.57 58.9358 129.454 58.8813C128.338 58.8268 127.436 58.7505 127.438 58.7109C127.439 58.6712 128.345 58.6833 129.461 58.7375C130.577 58.7921 131.48 58.8683 131.478 58.9079Z" fill="#263238"/>
<path d="M128.092 59.3319C128.104 59.3479 128.085 59.3859 128.104 59.4348C128.126 59.4886 128.165 59.5143 128.216 59.4747C128.266 59.4334 128.249 59.3897 128.201 59.3572C128.156 59.3286 128.115 59.3395 128.102 59.3236C128.086 59.3133 128.127 59.2451 128.231 59.2599C128.277 59.2682 128.339 59.2967 128.371 59.369C128.404 59.4431 128.37 59.5386 128.307 59.5868C128.246 59.6382 128.145 59.651 128.079 59.6028C128.015 59.5566 128 59.4907 128.002 59.4435C128.009 59.3395 128.085 59.3142 128.092 59.3319Z" fill="#263238"/>
<g opacity="0.2">
<path d="M123.553 43.6738C123.139 42.9285 122.723 42.183 122.309 41.4375C121.813 45.37 122.093 49.3978 123.13 53.2245C123.258 50.0569 123.386 46.8893 123.514 43.722" fill="black"/>
</g>
<path d="M117.234 39.5711C117.23 39.5661 117.308 39.5614 117.459 39.5562C117.633 39.5519 117.854 39.5463 118.123 39.5397C118.699 39.5281 119.531 39.5144 120.533 39.5083L120.601 39.5078L120.596 39.5758C120.531 40.4473 120.456 41.4579 120.377 42.5345L120.374 42.5739L120.339 42.5926C120.292 42.6171 120.241 42.6438 120.191 42.6702C119.63 42.9633 119.088 43.2463 118.578 43.513L118.537 43.5342L118.502 43.5054C117.958 43.0632 117.454 42.6537 117.005 42.2884L116.98 42.2685L116.983 42.2388C117.053 41.4385 117.112 40.7716 117.155 40.2788C117.177 40.0648 117.194 39.8887 117.208 39.7478C117.222 39.6282 117.23 39.5668 117.234 39.5711C117.238 39.5753 117.238 39.6454 117.233 39.7726C117.227 39.9175 117.219 40.0983 117.209 40.3182C117.181 40.8032 117.144 41.4598 117.1 42.2475L117.078 42.198C117.532 42.5583 118.04 42.9624 118.589 43.3987L118.513 43.3914C119.023 43.1231 119.563 42.8382 120.123 42.5435C120.174 42.5168 120.224 42.4904 120.271 42.4658L120.233 42.5239C120.319 41.4477 120.4 40.4377 120.47 39.5666L120.533 39.6338C119.558 39.6277 118.741 39.6142 118.162 39.6027C117.887 39.5958 117.662 39.5904 117.485 39.5862C117.326 39.5807 117.239 39.576 117.234 39.5711Z" fill="#263238"/>
<path d="M110.228 56.6923C110.225 56.7317 109.929 56.6781 109.738 56.3926C109.544 56.1091 109.606 55.816 109.644 55.8285C109.685 55.8304 109.694 56.0763 109.858 56.3123C110.016 56.5528 110.242 56.6533 110.228 56.6923Z" fill="#263238"/>
<path d="M110.599 56.5354C110.574 56.5633 110.305 56.3086 110.199 55.8817C110.089 55.4557 110.204 55.1048 110.239 55.1175C110.281 55.1248 110.237 55.4578 110.339 55.8465C110.435 56.2369 110.633 56.5092 110.599 56.5354Z" fill="#263238"/>
<path d="M121.291 54.9454C121.327 54.9395 121.362 55.5 121.07 56.1084C120.785 56.7196 120.329 57.0505 120.31 57.0196C120.279 56.9879 120.67 56.6266 120.939 56.0472C121.216 55.4716 121.247 54.9416 121.291 54.9454Z" fill="#263238"/>
<path d="M97.1373 39.0645C97.1373 39.0645 92.8231 35.8146 92.2184 35.5968C91.2156 35.2357 90.974 35.332 90.974 35.332L93.3405 37.8668C93.3405 37.8668 90.839 38.7061 90.6586 38.8045C90.4573 38.9142 90.3892 39.4511 90.9973 39.4511C91.4976 39.4511 93.8968 39.5066 93.8968 39.5066L95.8754 40.9433L97.1373 39.0645Z" fill="#FFBE9D"/>
<path d="M135.312 11.0735C135.312 11.0704 135.36 11.0695 135.454 11.0711C135.557 11.0739 135.696 11.078 135.873 11.0829C135.964 11.0872 136.068 11.0872 136.181 11.0966C136.294 11.1124 136.417 11.1296 136.55 11.1481C136.684 11.1672 136.828 11.1877 136.981 11.2096C137.132 11.2469 137.292 11.2863 137.462 11.3284C138.138 11.5013 138.957 11.7966 139.794 12.3396C140.631 12.8737 141.501 13.6376 142.206 14.6755C142.899 15.7149 143.433 17.0226 143.575 18.4912C143.588 18.8586 143.633 19.2325 143.597 19.6127C143.584 19.8022 143.588 19.995 143.56 20.1864C143.531 20.3775 143.502 20.5701 143.472 20.7641C143.315 21.5302 143.086 22.3151 142.689 23.0462C142.301 23.779 141.801 24.4762 141.19 25.0973C140.567 25.7057 139.84 26.2334 139.03 26.64C138.223 27.05 137.329 27.3332 136.398 27.4434C136.167 27.4887 135.931 27.4887 135.696 27.5029C135.46 27.5182 135.223 27.5267 134.986 27.5156C134.511 27.4965 134.035 27.4372 133.564 27.3369C132.542 27.1205 131.579 26.7066 130.734 26.1527L130.82 26.1614C129.839 26.553 128.876 26.9369 127.937 27.3119L127.766 27.3801L127.815 27.2038C128.106 26.152 128.389 25.1287 128.662 24.1391L128.677 24.2149C127.868 23.1458 127.352 21.925 127.138 20.7129C127.031 20.1073 126.986 19.5027 127.026 18.9188C127.039 18.6262 127.053 18.3376 127.108 18.057C127.13 17.9163 127.152 17.7763 127.174 17.6376C127.2 17.4998 127.242 17.3662 127.275 17.2317C127.832 15.0744 129.168 13.4809 130.491 12.569C131.153 12.105 131.807 11.7723 132.405 11.5648C132.554 11.5117 132.698 11.4605 132.836 11.4114C132.978 11.3756 133.115 11.3411 133.246 11.3081C133.376 11.276 133.501 11.245 133.62 11.2158C133.74 11.1929 133.856 11.1806 133.965 11.1639C134.183 11.1365 134.374 11.099 134.542 11.0907C134.707 11.0853 134.848 11.0806 134.965 11.0765C135.073 11.0742 135.158 11.0723 135.224 11.0709C135.282 11.0699 135.312 11.0709 135.312 11.0735C135.312 11.0761 135.282 11.0801 135.224 11.0853C135.158 11.0905 135.074 11.0971 134.967 11.1056C134.85 11.1134 134.71 11.1228 134.546 11.1339C134.379 11.1469 134.19 11.1886 133.974 11.2203C133.125 11.3748 131.854 11.7114 130.554 12.6561C129.257 13.5685 127.954 15.1466 127.419 17.2673C127.387 17.3995 127.346 17.5307 127.322 17.6661C127.301 17.8025 127.28 17.9399 127.259 18.0782C127.206 18.3536 127.194 18.637 127.183 18.9243C127.146 19.4975 127.193 20.0901 127.3 20.6832C127.513 21.8702 128.022 23.0639 128.817 24.1089L128.843 24.1432L128.832 24.1847C128.56 25.1749 128.279 26.1985 127.99 27.251L127.868 27.143C128.807 26.767 129.77 26.3819 130.75 25.9892L130.795 25.971L130.836 25.9976C131.663 26.5386 132.604 26.9428 133.603 27.1543C134.063 27.2522 134.528 27.3103 134.993 27.3292C135.225 27.34 135.456 27.3315 135.686 27.3167C135.917 27.303 136.148 27.3037 136.373 27.2591C137.284 27.1522 138.158 26.8763 138.948 26.4763C139.74 26.0795 140.452 25.5648 141.063 24.9708C141.662 24.3643 142.153 23.683 142.535 22.9667C142.926 22.2521 143.153 21.4839 143.31 20.7337C143.34 20.5437 143.369 20.3549 143.398 20.1677C143.427 19.9804 143.423 19.7911 143.437 19.6053C143.474 19.2327 143.431 18.8657 143.42 18.5049C143.288 17.0632 142.77 15.776 142.096 14.7485C141.408 13.7223 140.558 12.9624 139.737 12.4267C138.916 11.8822 138.11 11.5802 137.443 11.3982C137.275 11.3538 137.117 11.3118 136.967 11.2724C136.816 11.2476 136.674 11.2245 136.541 11.2028C136.41 11.1813 136.288 11.1613 136.176 11.1429C136.063 11.1306 135.961 11.1275 135.869 11.1204C135.694 11.1077 135.556 11.0978 135.453 11.0905C135.36 11.0822 135.312 11.0768 135.312 11.0735Z" fill="#263238"/>
<path d="M138.019 21.2425C138.019 21.2446 137.985 21.2467 137.922 21.2491C137.852 21.251 137.759 21.2533 137.642 21.2564C137.392 21.2602 137.039 21.2656 136.604 21.2725C135.719 21.2803 134.497 21.2911 133.122 21.3034L133.094 21.3036L133.09 21.2755C133.063 21.0926 133.034 20.8986 133.005 20.7023C132.764 19.0241 132.549 17.5262 132.409 16.5473L132.429 16.565C132.037 16.5633 131.724 16.5619 131.502 16.561C131.399 16.5593 131.317 16.5579 131.255 16.5569C131.199 16.5553 131.17 16.5536 131.17 16.5518C131.17 16.5499 131.199 16.5477 131.255 16.5454C131.316 16.5437 131.398 16.5414 131.501 16.5385C131.723 16.535 132.036 16.53 132.429 16.5237L132.447 16.5234L132.449 16.5414C132.596 17.5194 132.819 19.0161 133.07 20.6928C133.098 20.8892 133.127 21.083 133.154 21.2661L133.121 21.2382C134.496 21.2345 135.718 21.2309 136.603 21.2286C137.038 21.2302 137.391 21.2316 137.641 21.2326C137.758 21.2342 137.851 21.2356 137.921 21.2366C137.985 21.2385 138.019 21.2404 138.019 21.2425Z" fill="#E8505B"/>
<path d="M133.195 21.3429L133.186 21.3353L133.068 21.3363L133.051 21.2195L133.042 21.2119H133.05L133.046 21.1836L132.976 20.7095L132.386 16.5972L131.255 16.5894C131.156 16.5865 131.141 16.5861 131.141 16.5547V16.5438L131.148 16.5353C131.157 16.5245 131.159 16.5226 131.254 16.519L131.501 16.5122L132.371 16.498L132.368 16.4766L132.393 16.4978L132.473 16.4966L132.479 16.54C132.481 16.5523 132.483 16.5646 132.485 16.5771L132.509 16.5981H132.488C132.634 17.5768 132.854 19.0478 133.1 20.6918L133.175 21.2119L136.603 21.2022L137.921 21.2103C138.034 21.2131 138.048 21.2136 138.048 21.2454C138.048 21.277 138.036 21.2775 137.922 21.2815L137.641 21.2891L136.604 21.3051L133.193 21.3353L133.195 21.3429ZM133.184 21.2707L133.185 21.2763L134.111 21.2681L133.184 21.2707ZM132.877 19.5986L133.11 21.2117H133.116L133.041 20.7C132.985 20.3224 132.93 19.9543 132.877 19.5986Z" fill="#E8505B"/>
<path d="M132.975 20.2594C132.975 20.2585 132.983 20.2576 133 20.2566C133.019 20.2557 133.043 20.2547 133.072 20.2535C133.14 20.2519 133.234 20.2495 133.352 20.2467C133.601 20.2432 133.956 20.238 134.4 20.2314C135.3 20.2231 136.557 20.2118 138.014 20.1986L137.983 20.2248C138.086 19.6192 138.198 18.9645 138.314 18.287C138.374 17.9384 138.433 17.596 138.489 17.2696L138.521 17.3073C136.83 17.313 135.338 17.3177 134.262 17.3212C133.73 17.3203 133.302 17.3194 133.001 17.3189C132.856 17.3172 132.743 17.3161 132.661 17.3153C132.625 17.3144 132.596 17.3135 132.573 17.3128C132.553 17.3118 132.543 17.3109 132.543 17.3099C132.543 17.309 132.553 17.3078 132.573 17.3066C132.596 17.3057 132.625 17.3045 132.661 17.3031C132.743 17.3012 132.856 17.2986 133.001 17.2955C133.301 17.2915 133.73 17.2856 134.262 17.2783C135.337 17.2693 136.83 17.2568 138.521 17.2424L138.56 17.2422L138.553 17.2804C138.497 17.6068 138.439 17.9495 138.379 18.2981C138.262 18.9756 138.149 19.63 138.045 20.2354L138.041 20.2613H138.014C136.558 20.2651 135.3 20.2684 134.4 20.2708C133.957 20.2696 133.602 20.2684 133.352 20.2677C133.234 20.2663 133.14 20.2651 133.072 20.2642C133.043 20.2632 133.02 20.2625 133 20.2618C132.983 20.2613 132.975 20.2604 132.975 20.2594Z" fill="#E8505B"/>
<path d="M134.4 20.3011L132.999 20.2924C132.974 20.2912 132.946 20.2898 132.946 20.2603C132.946 20.2308 132.973 20.2294 132.998 20.2279L133.351 20.218L134.4 20.2029L137.962 20.1706L138.285 18.2828C138.34 17.96 138.395 17.6426 138.448 17.3379L134.262 17.3516L132.572 17.3431C132.54 17.3417 132.514 17.3402 132.514 17.3107C132.514 17.2815 132.54 17.2798 132.572 17.2779L133 17.2668L134.261 17.2496L138.469 17.2145L138.471 17.2031L138.48 17.2145L138.595 17.2135L138.576 17.3263L138.585 17.3376H138.574L138.087 20.1694H138.096L138.085 20.1781L138.065 20.2917L137.95 20.2919L137.94 20.3004L137.941 20.2919L134.4 20.3011ZM138.508 17.3374C138.455 17.6452 138.4 17.9661 138.344 18.2925L138.022 20.1696H138.026L138.513 17.3374H138.508ZM138.459 17.2732L137.415 17.2819L138.458 17.2784C138.458 17.2768 138.458 17.2751 138.459 17.2732Z" fill="#E8505B"/>
<path d="M134.354 22.5825C134.348 22.5827 134.348 22.5393 134.326 22.4668C134.304 22.3958 134.253 22.2929 134.144 22.215C134.039 22.1369 133.869 22.0947 133.705 22.1572C133.543 22.2148 133.405 22.3875 133.407 22.5879C133.407 22.7885 133.547 22.9596 133.71 23.0153C133.874 23.076 134.044 23.0318 134.149 22.9523C134.256 22.873 134.306 22.7696 134.327 22.6984C134.348 22.6259 134.348 22.5822 134.354 22.5825C134.357 22.5822 134.366 22.6259 134.352 22.7045C134.338 22.7812 134.292 22.8968 134.177 22.9889C134.067 23.0811 133.878 23.1373 133.69 23.0719C133.505 23.0127 133.341 22.818 133.342 22.5881C133.338 22.3585 133.499 22.1619 133.684 22.1006C133.871 22.0331 134.061 22.0871 134.172 22.178C134.288 22.2688 134.335 22.3838 134.35 22.4605C134.365 22.5388 134.357 22.5827 134.354 22.5825Z" fill="#E8505B"/>
<path d="M133.858 23.1284C133.802 23.1284 133.742 23.1194 133.681 23.0982C133.497 23.0397 133.312 22.845 133.313 22.5865C133.309 22.3288 133.492 22.132 133.675 22.0711C133.887 21.9949 134.086 22.0676 134.191 22.1537C134.33 22.2623 134.369 22.3994 134.38 22.4534C134.389 22.4978 134.393 22.5504 134.386 22.5809C134.394 22.6149 134.387 22.6753 134.381 22.7081C134.371 22.7621 134.333 22.9 134.196 23.0104C134.122 23.0722 134 23.1284 133.858 23.1284ZM133.755 22.1091C133.735 22.1136 133.715 22.1193 133.695 22.1268C133.535 22.1797 133.369 22.3586 133.372 22.5861C133.371 22.8143 133.54 22.9913 133.7 23.0423C133.72 23.0493 133.741 23.055 133.761 23.0593C133.741 23.0545 133.721 23.0489 133.701 23.0413C133.54 22.9866 133.378 22.8124 133.379 22.5861C133.376 22.3869 133.509 22.1938 133.696 22.1278C133.716 22.1202 133.736 22.1141 133.755 22.1091ZM133.87 22.1547C133.821 22.1547 133.769 22.1629 133.716 22.183C133.576 22.233 133.435 22.3874 133.438 22.5858C133.437 22.785 133.58 22.9377 133.721 22.9859C133.887 23.0472 134.046 22.9922 134.131 22.9273C134.24 22.8473 134.283 22.7435 134.299 22.6885C134.31 22.6503 134.315 22.6205 134.318 22.6009C134.319 22.5943 134.321 22.5875 134.322 22.5811C134.32 22.5745 134.319 22.5674 134.318 22.5608C134.314 22.5412 134.309 22.5115 134.297 22.4735C134.281 22.419 134.236 22.3154 134.127 22.2373C134.068 22.1931 133.975 22.1547 133.87 22.1547Z" fill="#E8505B"/>
<path d="M137.506 22.5669C137.5 22.5671 137.5 22.5237 137.478 22.4512C137.456 22.3802 137.405 22.2773 137.297 22.1994C137.191 22.1213 137.021 22.079 136.858 22.1416C136.695 22.1989 136.557 22.3719 136.56 22.5723C136.559 22.7729 136.7 22.944 136.863 22.9997C137.027 23.0603 137.197 23.0162 137.301 22.9367C137.409 22.8576 137.458 22.754 137.479 22.6827C137.5 22.6103 137.5 22.5666 137.506 22.5669C137.509 22.5666 137.519 22.6103 137.504 22.6889C137.49 22.7658 137.444 22.8812 137.33 22.9732C137.219 23.0653 137.03 23.1217 136.843 23.0563C136.657 22.9971 136.493 22.8024 136.494 22.5725C136.491 22.3429 136.652 22.1463 136.837 22.0849C137.023 22.0174 137.213 22.0715 137.325 22.1624C137.44 22.2532 137.488 22.3681 137.503 22.4448C137.518 22.5232 137.509 22.5671 137.506 22.5669Z" fill="#E8505B"/>
<path d="M137.01 23.1133C136.954 23.1133 136.894 23.1044 136.833 23.0831C136.65 23.0246 136.464 22.8297 136.465 22.5712C136.461 22.3135 136.644 22.1167 136.828 22.0558C137.04 21.9789 137.238 22.0523 137.344 22.1384C137.482 22.2467 137.522 22.3839 137.532 22.4381C137.541 22.4825 137.545 22.5351 137.538 22.5656C137.546 22.5998 137.54 22.66 137.534 22.693C137.524 22.7471 137.486 22.8849 137.348 22.9951C137.274 23.0569 137.152 23.1133 137.01 23.1133ZM136.904 22.0948C136.885 22.099 136.866 22.1047 136.847 22.1115C136.688 22.1646 136.52 22.3435 136.524 22.571C136.523 22.7992 136.692 22.9762 136.852 23.0272C136.875 23.0352 136.898 23.0413 136.92 23.0456C136.898 23.0409 136.876 23.0345 136.853 23.0262C136.692 22.9715 136.53 22.7976 136.531 22.5712C136.527 22.3456 136.688 22.1698 136.848 22.1129C136.867 22.1054 136.885 22.0995 136.904 22.0948ZM137.022 22.1396C136.973 22.1396 136.921 22.1479 136.869 22.1679C136.727 22.2179 136.587 22.3723 136.59 22.5705C136.589 22.7695 136.732 22.9222 136.873 22.9703C137.038 23.0312 137.198 22.9774 137.283 22.9118C137.392 22.8315 137.435 22.7277 137.451 22.673C137.462 22.6347 137.467 22.6052 137.47 22.5856C137.471 22.579 137.473 22.5719 137.474 22.5653C137.472 22.5587 137.471 22.5516 137.47 22.545C137.466 22.5255 137.461 22.496 137.45 22.458C137.433 22.4032 137.388 22.2998 137.279 22.2215C137.22 22.1781 137.128 22.1396 137.022 22.1396Z" fill="#E8505B"/>
</svg>
