<svg width="20" height="20" viewBox="0 0 20 20" fill="none" xmlns="http://www.w3.org/2000/svg">
<path d="M15.8333 2.4987H12.35C12 1.53203 11.0833 0.832031 10 0.832031C8.91667 0.832031 8 1.53203 7.65 2.4987H4.16667C3.25 2.4987 2.5 3.2487 2.5 4.16536V17.4987C2.5 18.4154 3.25 19.1654 4.16667 19.1654H15.8333C16.75 19.1654 17.5 18.4154 17.5 17.4987V4.16536C17.5 3.2487 16.75 2.4987 15.8333 2.4987ZM10 2.4987C10.4583 2.4987 10.8333 2.8737 10.8333 3.33203C10.8333 3.79036 10.4583 4.16536 10 4.16536C9.54167 4.16536 9.16667 3.79036 9.16667 3.33203C9.16667 2.8737 9.54167 2.4987 10 2.4987ZM15.8333 17.4987H4.16667V4.16536H5.83333V6.66536H14.1667V4.16536H15.8333V17.4987Z" fill="#68717D"/>
</svg>
