<svg width="20" height="20" viewBox="0 0 20 20" fill="none" xmlns="http://www.w3.org/2000/svg">
<path d="M9.16699 15.0013H10.8337V13.3346H9.16699V15.0013ZM10.0003 1.66797C5.40033 1.66797 1.66699 5.4013 1.66699 10.0013C1.66699 14.6013 5.40033 18.3346 10.0003 18.3346C14.6003 18.3346 18.3337 14.6013 18.3337 10.0013C18.3337 5.4013 14.6003 1.66797 10.0003 1.66797ZM10.0003 16.668C6.32533 16.668 3.33366 13.6763 3.33366 10.0013C3.33366 6.3263 6.32533 3.33464 10.0003 3.33464C13.6753 3.33464 16.667 6.3263 16.667 10.0013C16.667 13.6763 13.6753 16.668 10.0003 16.668ZM10.0003 5.0013C8.15866 5.0013 6.66699 6.49297 6.66699 8.33464H8.33366C8.33366 7.41797 9.08366 6.66797 10.0003 6.66797C10.917 6.66797 11.667 7.41797 11.667 8.33464C11.667 10.0013 9.16699 9.79297 9.16699 12.5013H10.8337C10.8337 10.6263 13.3337 10.418 13.3337 8.33464C13.3337 6.49297 11.842 5.0013 10.0003 5.0013Z" fill="#68717D"/>
</svg>
