<svg width="20" height="20" viewBox="0 0 20 20" fill="none" xmlns="http://www.w3.org/2000/svg">
<path d="M3.54167 5.0013H5.20833V7.5013H13.5417V5.0013H15.2083V9.16797H16.875V5.0013C16.875 4.08464 16.125 3.33464 15.2083 3.33464H11.725C11.375 2.36797 10.4583 1.66797 9.375 1.66797C8.29167 1.66797 7.375 2.36797 7.025 3.33464H3.54167C2.625 3.33464 1.875 4.08464 1.875 5.0013V16.668C1.875 17.5846 2.625 18.3346 3.54167 18.3346H8.54167V16.668H3.54167V5.0013ZM9.375 3.33464C9.83333 3.33464 10.2083 3.70964 10.2083 4.16797C10.2083 4.6263 9.83333 5.0013 9.375 5.0013C8.91667 5.0013 8.54167 4.6263 8.54167 4.16797C8.54167 3.70964 8.91667 3.33464 9.375 3.33464Z" fill="#7F7B89"/>
<path d="M16.875 10.418L12.3 15.0013L9.79167 12.5013L8.54167 13.7513L12.3 17.5013L18.125 11.668L16.875 10.418Z" fill="#7F7B89"/>
</svg>
