<svg width="14" height="14" viewBox="0 0 14 14" fill="none" xmlns="http://www.w3.org/2000/svg">
<path d="M6.39961 10.2016H7.59961V6.20156H6.39961V10.2016ZM6.99609 5.00156C7.1651 5.00156 7.30794 4.9444 7.42461 4.83008C7.54128 4.71575 7.59961 4.57408 7.59961 4.40508C7.59961 4.23607 7.54245 4.09323 7.42813 3.97656C7.31379 3.8599 7.17213 3.80156 7.00313 3.80156C6.83412 3.80156 6.69128 3.85872 6.57461 3.97305C6.45794 4.08738 6.39961 4.22905 6.39961 4.39805C6.39961 4.56706 6.45677 4.7099 6.57109 4.82656C6.68543 4.94323 6.82709 5.00156 6.99609 5.00156ZM7.00421 13.4016C6.12337 13.4016 5.29405 13.2349 4.51628 12.9016C3.7385 12.5682 3.05794 12.1099 2.47461 11.5266C1.89128 10.9432 1.43294 10.2629 1.09961 9.4856C0.766276 8.70827 0.599609 7.87772 0.599609 6.99393C0.599609 6.11013 0.766276 5.28212 1.09961 4.5099C1.43294 3.73767 1.89128 3.0599 2.47461 2.47656C3.05794 1.89323 3.73827 1.4349 4.51558 1.10156C5.2929 0.768229 6.12345 0.601562 7.00724 0.601562C7.89104 0.601562 8.71905 0.768229 9.49128 1.10156C10.2635 1.4349 10.9413 1.89323 11.5246 2.47656C12.1079 3.0599 12.5663 3.73892 12.8996 4.51363C13.2329 5.28835 13.3996 6.11613 13.3996 6.99696C13.3996 7.87781 13.2329 8.70712 12.8996 9.4849C12.5663 10.2627 12.1079 10.9432 11.5246 11.5266C10.9413 12.1099 10.2623 12.5682 9.48754 12.9016C8.71282 13.2349 7.88504 13.4016 7.00421 13.4016ZM6.99961 12.2016C8.44405 12.2016 9.67183 11.696 10.6829 10.6849C11.6941 9.67379 12.1996 8.44601 12.1996 7.00156C12.1996 5.55712 11.6941 4.32934 10.6829 3.31823C9.67183 2.30712 8.44405 1.80156 6.99961 1.80156C5.55516 1.80156 4.32739 2.30712 3.31628 3.31823C2.30517 4.32934 1.79961 5.55712 1.79961 7.00156C1.79961 8.44601 2.30517 9.67379 3.31628 10.6849C4.32739 11.696 5.55516 12.2016 6.99961 12.2016Z" fill="#5F5A6B"/>
</svg>
