<svg width="204" height="300" viewBox="0 0 204 300" fill="none" xmlns="http://www.w3.org/2000/svg">
<path fill-rule="evenodd" clip-rule="evenodd" d="M101.785 0C100.193 0 98.7617 0.695312 97.7812 1.79688C96.9395 2.74219 96.4277 3.99219 96.4277 5.35938C96.4277 8.3125 98.8262 10.7109 101.785 10.7109C104.744 10.7109 107.143 8.3125 107.143 5.35938C107.143 4.61719 106.992 3.91406 106.721 3.27344C106.576 2.92969 106.396 2.60938 106.186 2.30469C105.219 0.90625 103.607 0 101.785 0ZM133.928 0C130.971 0 128.572 2.39844 128.572 5.35938C128.572 6.57812 128.979 7.69531 129.664 8.59375C130.645 9.88281 132.189 10.7109 133.928 10.7109C136.887 10.7109 139.285 8.3125 139.285 5.35938C139.285 2.39844 136.887 0 133.928 0ZM166.072 0C169.029 0 171.428 2.39844 171.428 5.35938C171.428 5.75781 171.385 6.14062 171.303 6.51562C171.246 6.76562 171.172 7.01562 171.082 7.25C171.002 7.46094 170.908 7.67188 170.799 7.875C170.678 8.10156 170.541 8.32031 170.391 8.52344C169.416 9.85156 167.844 10.7109 166.072 10.7109C163.113 10.7109 160.715 8.3125 160.715 5.35938C160.715 2.39844 163.113 0 166.072 0ZM198.215 0C197.42 0 196.666 0.171875 195.988 0.484375C195.463 0.726562 194.982 1.03906 194.564 1.42969L194.279 1.72656L194.182 1.82812C194.027 2 193.885 2.1875 193.754 2.38281C193.432 2.86719 193.186 3.41406 193.033 3.99219C192.977 4.20312 192.934 4.42188 192.904 4.64062L192.869 4.98438L192.857 5.35938C192.857 6.24219 193.072 7.07812 193.455 7.8125C193.926 8.72656 194.652 9.48438 195.539 10C196.326 10.4531 197.24 10.7109 198.215 10.7109C201.174 10.7109 203.572 8.3125 203.572 5.35938C203.572 4.61719 203.422 3.90625 203.146 3.25781C202.996 2.90625 202.809 2.57031 202.59 2.25781C201.619 0.890625 200.021 0 198.215 0ZM198.215 300C201.174 300 203.572 297.602 203.572 294.641C203.572 293.266 203.051 292.008 202.195 291.062C201.662 290.469 201 290 200.252 289.688C200.039 289.602 199.82 289.531 199.596 289.469C199.154 289.352 198.691 289.289 198.215 289.289C196.619 289.289 195.188 289.992 194.205 291.094C193.367 292.039 192.857 293.281 192.857 294.641C192.857 297.602 195.256 300 198.215 300ZM166.072 300C169.029 300 171.428 297.602 171.428 294.641C171.428 291.688 169.029 289.289 166.072 289.289C163.113 289.289 160.715 291.688 160.715 294.641C160.715 296.281 161.447 297.742 162.604 298.727C163.539 299.523 164.75 300 166.072 300ZM133.928 300C136.887 300 139.285 297.602 139.285 294.641C139.285 294.094 139.203 293.555 139.047 293.055C138.945 292.734 138.814 292.422 138.656 292.125C138.537 291.898 138.404 291.688 138.258 291.492C138.127 291.312 137.986 291.141 137.836 290.977C136.859 289.938 135.471 289.289 133.928 289.289C130.971 289.289 128.572 291.688 128.572 294.641C128.572 297.602 130.971 300 133.928 300ZM101.785 300C104.744 300 107.143 297.602 107.143 294.641C107.143 291.688 104.744 289.289 101.785 289.289C98.8262 289.289 96.4277 291.688 96.4277 294.641C96.4277 297.602 98.8262 300 101.785 300ZM69.7695 10.7109C71.209 9.88281 72.6621 9.07031 74.1289 8.28906C73.1934 9.71875 71.5957 10.6719 69.7695 10.7109ZM38.8184 33.9531L40.0449 32.7891C41.7207 33.6875 42.8574 35.4609 42.8574 37.5C42.8574 40.4609 40.459 42.8594 37.5 42.8594C36.293 42.8594 35.1777 42.4531 34.2812 41.7812C33.666 41.3203 33.1543 40.7266 32.7852 40.0469L34.7129 38.0234C35.5996 37.1094 36.498 36.2031 37.4082 35.3125L38.8184 33.9531ZM8.28711 74.1328C9.07227 72.6641 9.88281 71.2109 10.7129 69.7734C10.6699 71.5938 9.71484 73.1953 8.28711 74.1328ZM69.7695 289.289C71.5957 289.328 73.1934 290.281 74.1289 291.711L73.5254 291.383C73.1172 291.164 72.709 290.945 72.3008 290.711L70.9062 289.938L69.7695 289.289ZM40.0449 267.211C41.7207 266.312 42.8574 264.539 42.8574 262.5C42.8574 261.375 42.5098 260.328 41.9141 259.461C41.5352 258.914 41.0547 258.438 40.5 258.062C40.0996 257.789 39.6621 257.57 39.1953 257.414C38.6621 257.234 38.0918 257.141 37.5 257.141C37.2031 257.141 36.9121 257.164 36.6289 257.211C36.2402 257.273 35.8652 257.375 35.5098 257.523C34.3438 257.992 33.3789 258.859 32.7852 259.953C33.8594 261.102 34.9512 262.234 36.0586 263.344L37.9941 265.258L40.0449 267.211ZM10.7129 230.227C10.6699 228.406 9.71484 226.805 8.28711 225.867C9.07227 227.336 9.88281 228.789 10.7129 230.227ZM75 37.5C75 40.4609 72.6016 42.8594 69.6426 42.8594C66.6836 42.8594 64.2852 40.4609 64.2852 37.5C64.2852 34.5391 66.6836 32.1406 69.6426 32.1406C72.6016 32.1406 75 34.5391 75 37.5ZM101.785 42.8594C104.744 42.8594 107.143 40.4609 107.143 37.5C107.143 34.5391 104.744 32.1406 101.785 32.1406C98.8262 32.1406 96.4277 34.5391 96.4277 37.5C96.4277 40.4609 98.8262 42.8594 101.785 42.8594ZM138.768 39.8047C138.385 40.6016 137.811 41.2969 137.102 41.8203C136.775 42.0625 136.42 42.2656 136.043 42.4297C135.395 42.7031 134.68 42.8594 133.928 42.8594C130.971 42.8594 128.572 40.4609 128.572 37.5C128.572 34.5391 130.971 32.1406 133.928 32.1406C135.051 32.1406 136.092 32.4844 136.953 33.0703C138.361 34.0391 139.285 35.6641 139.285 37.5C139.285 38.3281 139.1 39.1094 138.768 39.8047ZM166.072 42.8594C169.029 42.8594 171.428 40.4609 171.428 37.5C171.428 34.5391 169.029 32.1406 166.072 32.1406C163.113 32.1406 160.715 34.5391 160.715 37.5C160.715 40.4609 163.113 42.8594 166.072 42.8594ZM201.887 41.4062C200.928 42.3047 199.637 42.8594 198.215 42.8594C195.256 42.8594 192.857 40.4609 192.857 37.5C192.857 34.5391 195.256 32.1406 198.215 32.1406C201.174 32.1406 203.572 34.5391 203.572 37.5C203.572 37.8359 203.541 38.1641 203.482 38.4844L203.367 38.9688C203.305 39.1953 203.227 39.4141 203.135 39.625C203.008 39.9219 202.855 40.1953 202.682 40.4609C202.453 40.8047 202.186 41.125 201.887 41.4062ZM42.8574 69.6406C42.8574 72.6016 40.459 75 37.5 75C34.541 75 32.1426 72.6016 32.1426 69.6406C32.1426 67.7969 33.0801 66.1641 34.5039 65.2031C35.3594 64.625 36.3906 64.2891 37.5 64.2891C38.9316 64.2891 40.2324 64.8516 41.1934 65.7656C41.8027 66.3438 42.2754 67.0625 42.5586 67.875C42.752 68.4297 42.8574 69.0234 42.8574 69.6406ZM69.6426 75C72.6016 75 75 72.6016 75 69.6406C75 67.75 74.0195 66.0938 72.541 65.1406C72.1504 64.8906 71.7266 64.6875 71.2754 64.5391C70.7617 64.375 70.2129 64.2891 69.6426 64.2891C66.6836 64.2891 64.2852 66.6875 64.2852 69.6406C64.2852 72.6016 66.6836 75 69.6426 75ZM107.143 69.6406C107.143 72.6016 104.744 75 101.785 75C98.8262 75 96.4277 72.6016 96.4277 69.6406C96.4277 66.6875 98.8262 64.2891 101.785 64.2891C104.744 64.2891 107.143 66.6875 107.143 69.6406ZM133.928 75C136.887 75 139.285 72.6016 139.285 69.6406C139.285 66.6875 136.887 64.2891 133.928 64.2891C130.971 64.2891 128.572 66.6875 128.572 69.6406C128.572 72.6016 130.971 75 133.928 75ZM171.428 69.6406C171.428 72.6016 169.029 75 166.072 75C163.113 75 160.715 72.6016 160.715 69.6406C160.715 66.6875 163.113 64.2891 166.072 64.2891C169.029 64.2891 171.428 66.6875 171.428 69.6406ZM198.215 75C201.174 75 203.572 72.6016 203.572 69.6406C203.572 68.9062 203.424 68.2031 203.152 67.5625C202.887 66.9375 202.506 66.3672 202.035 65.8906C201.799 65.6562 201.541 65.4375 201.264 65.2422C200.398 64.6406 199.348 64.2891 198.215 64.2891C195.256 64.2891 192.857 66.6875 192.857 69.6406C192.857 71.4297 193.732 73.0156 195.08 73.9844C195.488 74.2812 195.939 74.5234 196.422 74.6953C196.982 74.8906 197.586 75 198.215 75ZM10.7148 101.789C10.7148 102.961 10.3379 104.047 9.69727 104.93C8.72266 106.266 7.14258 107.141 5.35742 107.141C3.80273 107.141 2.4043 106.477 1.42578 105.422C0.541016 104.469 0 103.188 0 101.789C0 98.8281 2.39844 96.4297 5.35742 96.4297C7.13867 96.4297 8.7168 97.2969 9.68945 98.6406C10.334 99.5234 10.7148 100.609 10.7148 101.789ZM37.5 107.141C40.459 107.141 42.8574 104.742 42.8574 101.789C42.8574 98.8281 40.459 96.4297 37.5 96.4297C35.8086 96.4297 34.2988 97.2188 33.3164 98.4453C32.582 99.3594 32.1426 100.523 32.1426 101.789C32.1426 104.742 34.541 107.141 37.5 107.141ZM75 101.789C75 103.039 74.5723 104.188 73.8555 105.102C72.873 106.344 71.3516 107.141 69.6426 107.141C66.6836 107.141 64.2852 104.742 64.2852 101.789C64.2852 98.8281 66.6836 96.4297 69.6426 96.4297C71.0723 96.4297 72.3711 96.9844 73.332 97.8984C73.9297 98.4688 74.3965 99.1719 74.6836 99.9609C74.8887 100.531 75 101.148 75 101.789ZM101.785 107.141C104.744 107.141 107.143 104.742 107.143 101.789C107.143 98.8281 104.744 96.4297 101.785 96.4297C98.8262 96.4297 96.4277 98.8281 96.4277 101.789C96.4277 104.742 98.8262 107.141 101.785 107.141ZM139.285 101.789C139.285 103.82 138.152 105.586 136.484 106.492C135.725 106.906 134.854 107.141 133.928 107.141C130.971 107.141 128.572 104.742 128.572 101.789C128.572 98.8281 130.971 96.4297 133.928 96.4297C136.887 96.4297 139.285 98.8281 139.285 101.789ZM170.162 105.242C170.951 104.312 171.428 103.102 171.428 101.789C171.428 98.8281 169.029 96.4297 166.072 96.4297C163.113 96.4297 160.715 98.8281 160.715 101.789C160.715 104.742 163.113 107.141 166.072 107.141C167.713 107.141 169.18 106.406 170.162 105.242ZM203.572 101.789C203.572 104.742 201.174 107.141 198.215 107.141C195.256 107.141 192.857 104.742 192.857 101.789C192.857 101.453 192.887 101.125 192.945 100.812L193.035 100.414L193.182 99.9531L193.371 99.5L193.543 99.1641C193.666 98.9453 193.803 98.7422 193.953 98.5469C194.932 97.2578 196.477 96.4297 198.215 96.4297C201.174 96.4297 203.572 98.8281 203.572 101.789ZM10.7148 133.93C10.7148 136.891 8.31641 139.289 5.35742 139.289C2.39844 139.289 0 136.891 0 133.93C0 132.312 0.71875 130.859 1.85156 129.875C2.79102 129.062 4.01758 128.57 5.35742 128.57C8.31641 128.57 10.7148 130.969 10.7148 133.93ZM37.5 139.289C40.459 139.289 42.8574 136.891 42.8574 133.93C42.8574 130.969 40.459 128.57 37.5 128.57C34.541 128.57 32.1426 130.969 32.1426 133.93C32.1426 136.891 34.541 139.289 37.5 139.289ZM75 133.93C75 136.891 72.6016 139.289 69.6426 139.289C66.6836 139.289 64.2852 136.891 64.2852 133.93C64.2852 130.969 66.6836 128.57 69.6426 128.57C70.5254 128.57 71.3574 128.781 72.0918 129.156L72.4199 129.336C72.9297 129.648 73.3848 130.039 73.7637 130.5C74.5352 131.43 75 132.625 75 133.93ZM101.785 139.289C104.744 139.289 107.143 136.891 107.143 133.93C107.143 130.969 104.744 128.57 101.785 128.57C98.8262 128.57 96.4277 130.969 96.4277 133.93C96.4277 136.891 98.8262 139.289 101.785 139.289ZM139.285 133.93C139.285 136.891 136.887 139.289 133.928 139.289C130.971 139.289 128.572 136.891 128.572 133.93C128.572 130.969 130.971 128.57 133.928 128.57C136.887 128.57 139.285 130.969 139.285 133.93ZM166.072 139.289C169.029 139.289 171.428 136.891 171.428 133.93C171.428 130.969 169.029 128.57 166.072 128.57C163.113 128.57 160.715 130.969 160.715 133.93C160.715 136.891 163.113 139.289 166.072 139.289ZM203.572 133.93C203.572 136.891 201.174 139.289 198.215 139.289C195.256 139.289 192.857 136.891 192.857 133.93C192.857 130.969 195.256 128.57 198.215 128.57C201.174 128.57 203.572 130.969 203.572 133.93ZM10.7148 166.07C10.7148 169.031 8.31641 171.43 5.35742 171.43C3.78711 171.43 2.37305 170.75 1.39258 169.672C0.527344 168.727 0 167.461 0 166.07C0 164.227 0.929688 162.602 2.3457 161.641C2.8418 161.305 3.39844 161.047 3.99414 160.891C4.42969 160.773 4.88672 160.711 5.35742 160.711C6.70898 160.711 7.94336 161.211 8.88672 162.031C10.0078 163.016 10.7148 164.461 10.7148 166.07ZM37.5 171.43C40.459 171.43 42.8574 169.031 42.8574 166.07C42.8574 163.109 40.459 160.711 37.5 160.711C34.541 160.711 32.1426 163.109 32.1426 166.07C32.1426 167.883 33.0449 169.484 34.4258 170.461C35.2949 171.07 36.3555 171.43 37.5 171.43ZM75 166.07C75 169.031 72.6016 171.43 69.6426 171.43C66.6836 171.43 64.2852 169.031 64.2852 166.07C64.2852 163.109 66.6836 160.711 69.6426 160.711C72.6016 160.711 75 163.109 75 166.07ZM101.785 171.43C104.744 171.43 107.143 169.031 107.143 166.07C107.143 163.109 104.744 160.711 101.785 160.711C98.8262 160.711 96.4277 163.109 96.4277 166.07C96.4277 169.031 98.8262 171.43 101.785 171.43ZM139.035 167.688C138.35 169.859 136.322 171.43 133.928 171.43C133.672 171.43 133.42 171.414 133.174 171.383L132.904 171.336L132.572 171.258C131.734 171.039 130.977 170.625 130.35 170.062C129.713 169.484 129.213 168.758 128.908 167.938C128.691 167.359 128.572 166.727 128.572 166.07C128.572 163.109 130.971 160.711 133.928 160.711C136.887 160.711 139.285 163.109 139.285 166.07C139.285 166.633 139.197 167.18 139.035 167.688ZM168.324 170.938C168.484 170.859 168.641 170.781 168.791 170.688C169.203 170.438 169.58 170.141 169.912 169.797C170.096 169.609 170.266 169.406 170.42 169.195L170.631 168.883C171.137 168.062 171.428 167.102 171.428 166.07C171.428 164.445 170.705 162.984 169.564 162C168.627 161.195 167.406 160.711 166.072 160.711C163.113 160.711 160.715 163.109 160.715 166.07C160.715 169.031 163.113 171.43 166.072 171.43C166.791 171.43 167.475 171.289 168.102 171.031L168.324 170.938ZM201.561 170.258C200.643 170.992 199.48 171.43 198.215 171.43C195.256 171.43 192.857 169.031 192.857 166.07C192.857 163.109 195.256 160.711 198.215 160.711C201.174 160.711 203.572 163.109 203.572 166.07C203.572 167.766 202.787 169.273 201.561 170.258ZM10.7148 198.211C10.7148 201.172 8.31641 203.57 5.35742 203.57C2.39844 203.57 0 201.172 0 198.211C0 195.258 2.39844 192.859 5.35742 192.859C8.31641 192.859 10.7148 195.258 10.7148 198.211ZM37.5 203.57C40.459 203.57 42.8574 201.172 42.8574 198.211C42.8574 195.258 40.459 192.859 37.5 192.859C35.8633 192.859 34.3984 193.594 33.416 194.75C33 195.234 32.6699 195.797 32.4512 196.414C32.252 196.977 32.1426 197.578 32.1426 198.211C32.1426 201.172 34.541 203.57 37.5 203.57ZM75 198.211C75 201.172 72.6016 203.57 69.6426 203.57C66.6836 203.57 64.2852 201.172 64.2852 198.211C64.2852 195.258 66.6836 192.859 69.6426 192.859C72.6016 192.859 75 195.258 75 198.211ZM101.785 203.57C104.744 203.57 107.143 201.172 107.143 198.211C107.143 195.258 104.744 192.859 101.785 192.859C100.324 192.859 99 193.445 98.0352 194.391C97.043 195.367 96.4277 196.719 96.4277 198.211C96.4277 201.172 98.8262 203.57 101.785 203.57ZM139.285 198.211C139.285 199.625 138.736 200.914 137.838 201.875C137.484 202.25 137.078 202.578 136.629 202.844C136.41 202.977 136.18 203.086 135.941 203.18C135.32 203.43 134.641 203.57 133.928 203.57C130.971 203.57 128.572 201.172 128.572 198.211C128.572 196.727 129.18 195.375 130.16 194.406C131.129 193.445 132.459 192.859 133.928 192.859C136.887 192.859 139.285 195.258 139.285 198.211ZM166.072 203.57C169.029 203.57 171.428 201.172 171.428 198.211C171.428 195.258 169.029 192.859 166.072 192.859C165.688 192.859 165.312 192.898 164.951 192.977C164.686 193.031 164.428 193.109 164.178 193.211L163.865 193.344L163.629 193.453C163.029 193.758 162.496 194.172 162.055 194.672C161.617 195.164 161.27 195.742 161.037 196.375C160.828 196.945 160.715 197.562 160.715 198.211C160.715 201.172 163.113 203.57 166.072 203.57ZM203.572 198.211C203.572 201.172 201.174 203.57 198.215 203.57C195.256 203.57 192.857 201.172 192.857 198.211C192.857 195.258 195.256 192.859 198.215 192.859C201.174 192.859 203.572 195.258 203.572 198.211ZM42.8574 230.359C42.8574 233.312 40.459 235.711 37.5 235.711C34.541 235.711 32.1426 233.312 32.1426 230.359C32.1426 227.398 34.541 225 37.5 225C40.459 225 42.8574 227.398 42.8574 230.359ZM69.6426 235.711C72.6016 235.711 75 233.312 75 230.359C75 230.094 74.9805 229.836 74.9434 229.578C74.875 229.117 74.75 228.672 74.5723 228.258C74.3945 227.844 74.166 227.453 73.8945 227.094C72.916 225.82 71.375 225 69.6426 225C66.6836 225 64.2852 227.398 64.2852 230.359C64.2852 233.312 66.6836 235.711 69.6426 235.711ZM107.143 230.359C107.143 233.312 104.744 235.711 101.785 235.711C98.8262 235.711 96.4277 233.312 96.4277 230.359C96.4277 228.93 96.9844 227.633 97.8945 226.672C98.0312 226.523 98.1758 226.391 98.3281 226.266C98.6602 225.984 99.0273 225.742 99.4199 225.547C100.133 225.195 100.936 225 101.785 225C103.174 225 104.438 225.531 105.389 226.398C106.467 227.375 107.143 228.789 107.143 230.359ZM133.928 235.711C136.887 235.711 139.285 233.312 139.285 230.359C139.285 227.398 136.887 225 133.928 225C130.971 225 128.572 227.398 128.572 230.359C128.572 233.312 130.971 235.711 133.928 235.711ZM171.428 230.359C171.428 233.312 169.029 235.711 166.072 235.711C163.113 235.711 160.715 233.312 160.715 230.359C160.715 227.398 163.113 225 166.072 225C167.365 225 168.553 225.461 169.479 226.227C170.361 226.953 171.006 227.961 171.281 229.117C171.336 229.352 171.377 229.586 171.4 229.828C171.418 230 171.428 230.18 171.428 230.359ZM198.215 235.711C201.174 235.711 203.572 233.312 203.572 230.359C203.572 227.398 201.174 225 198.215 225C197.488 225 196.795 225.148 196.164 225.406C195.471 225.695 194.852 226.125 194.342 226.656C193.422 227.617 192.857 228.922 192.857 230.359C192.857 233.312 195.256 235.711 198.215 235.711ZM75 262.5C75 265.461 72.6016 267.859 69.6426 267.859C67.998 267.859 66.5254 267.117 65.543 265.945C64.7578 265.016 64.2852 263.812 64.2852 262.5C64.2852 259.539 66.6836 257.141 69.6426 257.141C72.6016 257.141 75 259.539 75 262.5ZM101.785 267.859C104.744 267.859 107.143 265.461 107.143 262.5C107.143 261.047 106.564 259.727 105.627 258.758C104.652 257.758 103.291 257.141 101.785 257.141C98.8262 257.141 96.4277 259.539 96.4277 262.5C96.4277 265.461 98.8262 267.859 101.785 267.859ZM139.285 262.5C139.285 265.461 136.887 267.859 133.928 267.859C130.971 267.859 128.572 265.461 128.572 262.5C128.572 259.539 130.971 257.141 133.928 257.141C136.887 257.141 139.285 259.539 139.285 262.5ZM166.072 267.859C169.029 267.859 171.428 265.461 171.428 262.5C171.428 259.539 169.029 257.141 166.072 257.141C163.113 257.141 160.715 259.539 160.715 262.5C160.715 263.75 161.143 264.898 161.857 265.812C162.838 267.062 164.361 267.859 166.072 267.859ZM203.572 262.5C203.572 265.461 201.174 267.859 198.215 267.859C196.953 267.859 195.793 267.422 194.877 266.695C193.646 265.711 192.857 264.195 192.857 262.5C192.857 259.539 195.256 257.141 198.215 257.141C201.174 257.141 203.572 259.539 203.572 262.5Z" fill="url(#paint0_linear_2930_75740)"/>
<defs>
<linearGradient id="paint0_linear_2930_75740" x1="185" y1="329" x2="65.5" y2="24.5" gradientUnits="userSpaceOnUse">
<stop stop-color="#FBEAE7"/>
<stop offset="1" stop-color="white" stop-opacity="0"/>
</linearGradient>
</defs>
</svg>
